<svg width="295" height="266" viewBox="0 0 295 266" fill="none" xmlns="http://www.w3.org/2000/svg">
<g filter="url(#filter0_d_972_2058)">
<path d="M122.365 214.268C94.2445 205.671 69.9609 193.041 54.8732 175.222C39.6507 157.244 33.9906 134.213 42.7601 105.529C60.2359 48.3683 120.741 16.1973 177.901 33.6731C235.062 51.1488 267.233 111.654 249.757 168.814C240.984 197.511 223.254 213.389 200.439 219.731C177.823 226.018 150.485 222.866 122.365 214.268Z" fill="url(#paint0_linear_972_2058)" stroke="white" stroke-width="5"/>
<path d="M68.4465 146.789C64.3176 131.851 64.2499 115.598 69.1149 99.6858C72.5187 88.5524 77.5059 80.1251 83.8857 74.023C90.2756 67.9111 97.9373 64.2521 106.489 62.4691C123.464 58.9298 144.057 62.7649 165.753 69.3979C187.453 76.0323 207.065 84.4915 219.564 97.0246C225.857 103.335 230.377 110.707 232.422 119.397C234.464 128.079 233.993 137.9 230.584 149.052C225.317 166.278 215.036 180.6 201.832 190.9C196.324 195.196 190.74 196.975 185.039 196.991C179.418 197.005 173.848 195.304 168.321 192.946C164.236 191.202 160.016 189.026 155.737 186.819C154.258 186.056 152.771 185.289 151.281 184.536C145.412 181.567 139.354 178.73 132.927 176.765C126.155 174.695 119.353 173.519 112.747 172.515C111.579 172.337 110.413 172.165 109.253 171.993C103.918 171.203 98.7046 170.431 93.9425 169.28C88.1178 167.872 82.705 165.843 78.2492 162.316C73.7421 158.748 70.3783 153.778 68.4465 146.789Z" fill="url(#paint1_linear_972_2058)" stroke="white" stroke-width="5"/>
<path d="M45.032 179.606L43.057 181.139L42.2622 180.115L42.6412 178.875C43.8956 174.772 45.1548 171.653 46.6038 169.539C48.1041 167.35 50.0927 165.866 52.7177 165.975C55.0055 166.069 57.1699 167.393 59.133 168.902C61.1274 170.434 63.389 172.549 65.9208 174.917L66.0906 175.076C76.5488 184.856 93.4172 200.563 124.548 208.955L124.639 208.979L124.727 209.01C149.92 217.871 172.009 214.749 187.07 212.62C187.252 212.594 187.432 212.569 187.611 212.543C191.354 212.015 194.746 211.545 197.595 211.382C200.376 211.224 203.043 211.323 205.149 212.218C206.259 212.69 207.262 213.402 208.019 214.437C208.772 215.467 209.176 216.671 209.32 217.962C209.599 220.441 208.952 223.513 207.668 227.173L207.295 228.234L206.253 228.659L205.309 226.345C206.253 228.659 206.253 228.66 206.251 228.66L206.249 228.661L206.24 228.665L206.211 228.677C206.186 228.686 206.152 228.7 206.107 228.718C206.018 228.753 205.888 228.804 205.72 228.869C205.383 228.998 204.89 229.183 204.252 229.411C202.974 229.868 201.111 230.501 198.74 231.213C194 232.638 187.218 234.388 179.015 235.702C162.626 238.326 140.453 239.227 117.523 232.217C94.6375 225.22 76.0338 212.444 63.1819 201.469C56.7481 195.975 51.7338 190.914 48.322 187.219C46.6156 185.37 45.3085 183.862 44.4237 182.811C43.9812 182.285 43.6442 181.873 43.4155 181.59C43.3012 181.448 43.2139 181.338 43.154 181.263C43.1241 181.225 43.101 181.195 43.0848 181.175L43.0657 181.15L43.0601 181.143L43.0582 181.141C43.0576 181.14 43.057 181.139 45.032 179.606Z" fill="url(#paint2_linear_972_2058)" stroke="white" stroke-width="5"/>
<path d="M53.0096 73.7215C59.7287 75.7757 62.5043 83.6325 59.1541 89.5789C56.1312 94.9443 52.7385 101.622 51.0644 107.098C49.3902 112.574 48.4686 120.008 47.9744 126.146C47.4266 132.949 40.7321 137.911 34.013 135.857L29.0586 134.342C24.3591 132.905 21.2349 128.368 21.8007 123.4C22.5332 116.969 23.9384 106.821 26.1795 99.4902C28.4206 92.1598 32.9307 82.9604 35.9196 77.2194C38.2287 72.7841 43.3557 70.77 48.0552 72.2068L53.0096 73.7215Z" fill="url(#paint3_linear_972_2058)" stroke="white" stroke-width="5"/>
<path d="M258.159 136.442C251.44 134.388 244.746 139.349 244.198 146.152C243.704 152.291 242.782 159.724 241.108 165.2C239.434 170.676 236.041 177.354 233.018 182.719C229.668 188.666 232.444 196.523 239.163 198.577L244.117 200.092C248.817 201.528 253.944 199.514 256.253 195.079C259.242 189.338 263.752 180.139 265.993 172.808C268.234 165.478 269.639 155.329 270.372 148.898C270.937 143.93 267.813 139.393 263.114 137.957L258.159 136.442Z" fill="url(#paint4_linear_972_2058)" stroke="white" stroke-width="5"/>
<path d="M81.6269 89.8597C83.2001 87.4562 86.1805 86.4769 88.9275 87.3167C93.6761 88.7685 95.3585 94.7332 92.6307 98.8825C91.0436 101.297 89.5715 103.927 88.7677 106.341C87.7851 109.292 87.4312 113.031 87.3683 116.52C87.2789 121.48 82.529 125.446 77.7845 123.995C75.003 123.145 73.0649 120.627 73.1321 117.719C73.234 113.303 73.6605 106.792 75.1684 102.183C76.5005 98.1114 79.4333 93.2108 81.6269 89.8597Z" fill="white"/>
<ellipse cx="4.63718" cy="6.49205" rx="4.63718" ry="6.49205" transform="matrix(-0.990268 0.139173 0.139173 0.990268 86.0859 129.12)" fill="white"/>
</g>
<defs>
<filter id="filter0_d_972_2058" x="19.2344" y="26.4146" width="265.704" height="233.725" filterUnits="userSpaceOnUse" color-interpolation-filters="sRGB">
<feFlood flood-opacity="0" result="BackgroundImageFix"/>
<feColorMatrix in="SourceAlpha" type="matrix" values="0 0 0 0 0 0 0 0 0 0 0 0 0 0 0 0 0 0 127 0" result="hardAlpha"/>
<feOffset dx="8" dy="16"/>
<feGaussianBlur stdDeviation="2"/>
<feComposite in2="hardAlpha" operator="out"/>
<feColorMatrix type="matrix" values="0 0 0 0 0 0 0 0 0 0 0 0 0 0 0 0 0 0 0.25 0"/>
<feBlend mode="normal" in2="BackgroundImageFix" result="effect1_dropShadow_972_2058"/>
<feBlend mode="normal" in="SourceGraphic" in2="effect1_dropShadow_972_2058" result="shape"/>
</filter>
<linearGradient id="paint0_linear_972_2058" x1="123.391" y1="211.968" x2="165.511" y2="74.201" gradientUnits="userSpaceOnUse">
<stop stop-color="#D56C3A"/>
<stop offset="1" stop-color="#E28858"/>
</linearGradient>
<linearGradient id="paint1_linear_972_2058" x1="165.848" y1="72.0411" x2="132.87" y2="179.907" gradientUnits="userSpaceOnUse">
<stop stop-color="#ABCFFA"/>
<stop offset="0.955" stop-color="#4163E6"/>
</linearGradient>
<linearGradient id="paint2_linear_972_2058" x1="128.725" y1="191.416" x2="117.091" y2="229.47" gradientUnits="userSpaceOnUse">
<stop stop-color="#A839C0"/>
<stop offset="1" stop-color="#6F66D0"/>
</linearGradient>
<linearGradient id="paint3_linear_972_2058" x1="49.9022" y1="75.3857" x2="32.3675" y2="132.739" gradientUnits="userSpaceOnUse">
<stop stop-color="#A839C0"/>
<stop offset="1" stop-color="#6F66D0"/>
</linearGradient>
<linearGradient id="paint4_linear_972_2058" x1="259.805" y1="139.559" x2="242.27" y2="196.913" gradientUnits="userSpaceOnUse">
<stop stop-color="#A839C0"/>
<stop offset="1" stop-color="#6F66D0"/>
</linearGradient>
</defs>
</svg>
