<svg width="1440" height="443" viewBox="0 0 1440 443" fill="none" xmlns="http://www.w3.org/2000/svg">
<circle cx="1385.86" cy="124.845" r="124.845" fill="#ABCFFA"/>
<circle cx="1240.37" cy="201.867" r="99.1716" fill="#ABCFFA"/>
<circle cx="1106.47" cy="228.044" r="63.933" fill="#ABCFFA"/>
<circle cx="1385.86" cy="215.459" r="124.845" fill="#ABCFFA"/>
<circle cx="1198.09" cy="269.324" r="92.1239" fill="#ABCFFA"/>
<circle cx="1021.89" cy="251.201" r="70.9807" fill="#ABCFFA"/>
<circle cx="603.561" cy="345.339" r="93.6341" fill="#ABCFFA"/>
<circle cx="825.565" cy="328.726" r="76.0148" fill="#ABCFFA"/>
<circle cx="720.856" cy="334.767" r="88.0966" fill="#ABCFFA"/>
<circle cx="995.214" cy="340.305" r="81.5523" fill="#ABCFFA"/>
<circle cx="791.836" cy="351.38" r="81.5523" fill="#ABCFFA"/>
<circle cx="896.545" cy="371.516" r="65.4432" fill="#ABCFFA"/>
<circle cx="641.82" cy="351.38" r="81.5523" fill="#ABCFFA"/>
<circle cx="1425.12" cy="322.182" r="85.5795" fill="#ABCFFA"/>
<circle cx="1096.9" cy="335.27" r="85.5795" fill="#ABCFFA"/>
<circle cx="710.284" cy="371.516" r="70.4773" fill="#ABCFFA"/>
<circle cx="1319.91" cy="328.726" r="79.0352" fill="#ABCFFA"/>
<circle cx="1215.2" cy="353.897" r="61.9193" fill="#ABCFFA"/>
<circle cx="124.845" cy="124.845" r="124.845" transform="matrix(-1 0 0 1 179.691 0)" fill="#ABCFFA"/>
<circle cx="99.1716" cy="99.1716" r="99.1716" transform="matrix(-1 0 0 1 299.502 102.695)" fill="#ABCFFA"/>
<circle cx="70.9807" cy="70.9807" r="70.9807" transform="matrix(-1 0 0 1 416.293 159.077)" fill="#ABCFFA"/>
<circle cx="124.845" cy="124.845" r="124.845" transform="matrix(-1 0 0 1 179.691 90.6136)" fill="#ABCFFA"/>
<circle cx="92.1239" cy="92.1239" r="92.1239" transform="matrix(-1 0 0 1 334.741 177.2)" fill="#ABCFFA"/>
<circle cx="60.9125" cy="60.9125" r="60.9125" transform="matrix(-1 0 0 1 489.791 237.609)" fill="#ABCFFA"/>
<circle cx="85.5795" cy="85.5795" r="85.5795" transform="matrix(-1 0 0 1 101.159 236.602)" fill="#ABCFFA"/>
<circle cx="85.5795" cy="85.5795" r="85.5795" transform="matrix(-1 0 0 1 429.382 249.691)" fill="#ABCFFA"/>
<circle cx="479.723" cy="361.448" r="81.5523" fill="#ABCFFA"/>
<circle cx="555.234" cy="376.55" r="65.4432" fill="#ABCFFA"/>
<circle cx="79.0352" cy="79.0352" r="79.0352" transform="matrix(-1 0 0 1 199.827 249.691)" fill="#ABCFFA"/>
<circle cx="61.9193" cy="61.9193" r="61.9193" transform="matrix(-1 0 0 1 287.42 291.977)" fill="#ABCFFA"/>
</svg>
