<svg width="1440" height="440" viewBox="0 0 1440 440" fill="none" xmlns="http://www.w3.org/2000/svg">
<circle cx="1439" cy="124" r="124" fill="url(#paint0_linear_980_2935)"/>
<circle cx="1439" cy="124" r="124" fill="url(#paint1_linear_980_2935)"/>
<circle cx="1439" cy="124" r="124" fill="url(#paint2_linear_980_2935)"/>
<circle cx="1439" cy="124" r="124" fill="url(#paint3_linear_980_2935)"/>
<circle cx="1439" cy="124" r="124" fill="url(#paint4_linear_980_2935)"/>
<circle cx="1294.5" cy="200.5" r="98.5" fill="url(#paint5_linear_980_2935)"/>
<circle cx="1294.5" cy="200.5" r="98.5" fill="url(#paint6_linear_980_2935)"/>
<circle cx="1294.5" cy="200.5" r="98.5" fill="url(#paint7_linear_980_2935)"/>
<circle cx="1294.5" cy="200.5" r="98.5" fill="url(#paint8_linear_980_2935)"/>
<circle cx="1294.5" cy="200.5" r="98.5" fill="url(#paint9_linear_980_2935)"/>
<circle cx="1161.5" cy="226.5" r="63.5" fill="url(#paint10_linear_980_2935)"/>
<circle cx="1161.5" cy="226.5" r="63.5" fill="url(#paint11_linear_980_2935)"/>
<circle cx="1161.5" cy="226.5" r="63.5" fill="url(#paint12_linear_980_2935)"/>
<circle cx="1161.5" cy="226.5" r="63.5" fill="url(#paint13_linear_980_2935)"/>
<circle cx="1161.5" cy="226.5" r="63.5" fill="url(#paint14_linear_980_2935)"/>
<circle cx="1439" cy="214" r="124" fill="url(#paint15_linear_980_2935)"/>
<circle cx="1439" cy="214" r="124" fill="url(#paint16_linear_980_2935)"/>
<circle cx="1439" cy="214" r="124" fill="url(#paint17_linear_980_2935)"/>
<circle cx="1439" cy="214" r="124" fill="url(#paint18_linear_980_2935)"/>
<circle cx="1439" cy="214" r="124" fill="url(#paint19_linear_980_2935)"/>
<circle cx="1252.5" cy="267.5" r="91.5" fill="url(#paint20_linear_980_2935)"/>
<circle cx="1252.5" cy="267.5" r="91.5" fill="url(#paint21_linear_980_2935)"/>
<circle cx="1252.5" cy="267.5" r="91.5" fill="url(#paint22_linear_980_2935)"/>
<circle cx="1252.5" cy="267.5" r="91.5" fill="url(#paint23_linear_980_2935)"/>
<circle cx="1252.5" cy="267.5" r="91.5" fill="url(#paint24_linear_980_2935)"/>
<circle cx="1088" cy="278" r="81" fill="url(#paint25_linear_980_2935)"/>
<circle cx="1088" cy="278" r="81" fill="url(#paint26_linear_980_2935)"/>
<circle cx="1088" cy="278" r="81" fill="url(#paint27_linear_980_2935)"/>
<circle cx="1088" cy="278" r="81" fill="url(#paint28_linear_980_2935)"/>
<circle cx="1088" cy="278" r="81" fill="url(#paint29_linear_980_2935)"/>
<circle cx="630" cy="296" r="109" fill="url(#paint30_linear_980_2935)"/>
<circle cx="630" cy="296" r="109" fill="url(#paint31_linear_980_2935)"/>
<circle cx="630" cy="296" r="109" fill="url(#paint32_linear_980_2935)"/>
<circle cx="630" cy="296" r="109" fill="url(#paint33_linear_980_2935)"/>
<circle cx="630" cy="296" r="109" fill="url(#paint34_linear_980_2935)"/>
<circle cx="917" cy="296" r="109" fill="url(#paint35_linear_980_2935)"/>
<circle cx="917" cy="296" r="109" fill="url(#paint36_linear_980_2935)"/>
<circle cx="917" cy="296" r="109" fill="url(#paint37_linear_980_2935)"/>
<circle cx="917" cy="296" r="109" fill="url(#paint38_linear_980_2935)"/>
<circle cx="917" cy="296" r="109" fill="url(#paint39_linear_980_2935)"/>
<circle cx="778.5" cy="332.5" r="87.5" fill="url(#paint40_linear_980_2935)"/>
<circle cx="778.5" cy="332.5" r="87.5" fill="url(#paint41_linear_980_2935)"/>
<circle cx="778.5" cy="332.5" r="87.5" fill="url(#paint42_linear_980_2935)"/>
<circle cx="778.5" cy="332.5" r="87.5" fill="url(#paint43_linear_980_2935)"/>
<circle cx="778.5" cy="332.5" r="87.5" fill="url(#paint44_linear_980_2935)"/>
<circle cx="849" cy="349" r="81" fill="url(#paint45_linear_980_2935)"/>
<circle cx="849" cy="349" r="81" fill="url(#paint46_linear_980_2935)"/>
<circle cx="849" cy="349" r="81" fill="url(#paint47_linear_980_2935)"/>
<circle cx="849" cy="349" r="81" fill="url(#paint48_linear_980_2935)"/>
<circle cx="849" cy="349" r="81" fill="url(#paint49_linear_980_2935)"/>
<circle cx="1152" cy="333" r="85" fill="url(#paint50_linear_980_2935)"/>
<circle cx="1152" cy="333" r="85" fill="url(#paint51_linear_980_2935)"/>
<circle cx="1152" cy="333" r="85" fill="url(#paint52_linear_980_2935)"/>
<circle cx="1152" cy="333" r="85" fill="url(#paint53_linear_980_2935)"/>
<circle cx="1152" cy="333" r="85" fill="url(#paint54_linear_980_2935)"/>
<circle cx="1051" cy="359" r="81" fill="url(#paint55_linear_980_2935)"/>
<circle cx="1051" cy="359" r="81" fill="url(#paint56_linear_980_2935)"/>
<circle cx="1051" cy="359" r="81" fill="url(#paint57_linear_980_2935)"/>
<circle cx="1051" cy="359" r="81" fill="url(#paint58_linear_980_2935)"/>
<circle cx="1051" cy="359" r="81" fill="url(#paint59_linear_980_2935)"/>
<circle cx="953" cy="369" r="65" fill="url(#paint60_linear_980_2935)"/>
<circle cx="953" cy="369" r="65" fill="url(#paint61_linear_980_2935)"/>
<circle cx="953" cy="369" r="65" fill="url(#paint62_linear_980_2935)"/>
<circle cx="953" cy="369" r="65" fill="url(#paint63_linear_980_2935)"/>
<circle cx="953" cy="369" r="65" fill="url(#paint64_linear_980_2935)"/>
<circle cx="700" cy="349" r="81" fill="url(#paint65_linear_980_2935)"/>
<circle cx="700" cy="349" r="81" fill="url(#paint66_linear_980_2935)"/>
<circle cx="700" cy="349" r="81" fill="url(#paint67_linear_980_2935)"/>
<circle cx="700" cy="349" r="81" fill="url(#paint68_linear_980_2935)"/>
<circle cx="700" cy="349" r="81" fill="url(#paint69_linear_980_2935)"/>
<circle cx="1478" cy="320" r="85" fill="url(#paint70_linear_980_2935)"/>
<circle cx="1478" cy="320" r="85" fill="url(#paint71_linear_980_2935)"/>
<circle cx="1478" cy="320" r="85" fill="url(#paint72_linear_980_2935)"/>
<circle cx="1478" cy="320" r="85" fill="url(#paint73_linear_980_2935)"/>
<circle cx="1478" cy="320" r="85" fill="url(#paint74_linear_980_2935)"/>
<circle cx="768" cy="369" r="70" fill="url(#paint75_linear_980_2935)"/>
<circle cx="768" cy="369" r="70" fill="url(#paint76_linear_980_2935)"/>
<circle cx="768" cy="369" r="70" fill="url(#paint77_linear_980_2935)"/>
<circle cx="768" cy="369" r="70" fill="url(#paint78_linear_980_2935)"/>
<circle cx="768" cy="369" r="70" fill="url(#paint79_linear_980_2935)"/>
<circle cx="1373.5" cy="326.5" r="78.5" fill="url(#paint80_linear_980_2935)"/>
<circle cx="1373.5" cy="326.5" r="78.5" fill="url(#paint81_linear_980_2935)"/>
<circle cx="1373.5" cy="326.5" r="78.5" fill="url(#paint82_linear_980_2935)"/>
<circle cx="1373.5" cy="326.5" r="78.5" fill="url(#paint83_linear_980_2935)"/>
<circle cx="1373.5" cy="326.5" r="78.5" fill="url(#paint84_linear_980_2935)"/>
<circle cx="1269.5" cy="351.5" r="61.5" fill="url(#paint85_linear_980_2935)"/>
<circle cx="1269.5" cy="351.5" r="61.5" fill="url(#paint86_linear_980_2935)"/>
<circle cx="1269.5" cy="351.5" r="61.5" fill="url(#paint87_linear_980_2935)"/>
<circle cx="1269.5" cy="351.5" r="61.5" fill="url(#paint88_linear_980_2935)"/>
<circle cx="1269.5" cy="351.5" r="61.5" fill="url(#paint89_linear_980_2935)"/>
<circle cx="124" cy="124" r="124" transform="matrix(-1 0 0 1 241 0)" fill="url(#paint90_linear_980_2935)"/>
<circle cx="124" cy="124" r="124" transform="matrix(-1 0 0 1 241 0)" fill="url(#paint91_linear_980_2935)"/>
<circle cx="124" cy="124" r="124" transform="matrix(-1 0 0 1 241 0)" fill="url(#paint92_linear_980_2935)"/>
<circle cx="124" cy="124" r="124" transform="matrix(-1 0 0 1 241 0)" fill="url(#paint93_linear_980_2935)"/>
<circle cx="124" cy="124" r="124" transform="matrix(-1 0 0 1 241 0)" fill="url(#paint94_linear_980_2935)"/>
<circle cx="98.5" cy="98.5" r="98.5" transform="matrix(-1 0 0 1 360 102)" fill="url(#paint95_linear_980_2935)"/>
<circle cx="98.5" cy="98.5" r="98.5" transform="matrix(-1 0 0 1 360 102)" fill="url(#paint96_linear_980_2935)"/>
<circle cx="98.5" cy="98.5" r="98.5" transform="matrix(-1 0 0 1 360 102)" fill="url(#paint97_linear_980_2935)"/>
<circle cx="98.5" cy="98.5" r="98.5" transform="matrix(-1 0 0 1 360 102)" fill="url(#paint98_linear_980_2935)"/>
<circle cx="98.5" cy="98.5" r="98.5" transform="matrix(-1 0 0 1 360 102)" fill="url(#paint99_linear_980_2935)"/>
<circle cx="63.5" cy="63.5" r="63.5" transform="matrix(-1 0 0 1 458 163)" fill="url(#paint100_linear_980_2935)"/>
<circle cx="63.5" cy="63.5" r="63.5" transform="matrix(-1 0 0 1 458 163)" fill="url(#paint101_linear_980_2935)"/>
<circle cx="63.5" cy="63.5" r="63.5" transform="matrix(-1 0 0 1 458 163)" fill="url(#paint102_linear_980_2935)"/>
<circle cx="63.5" cy="63.5" r="63.5" transform="matrix(-1 0 0 1 458 163)" fill="url(#paint103_linear_980_2935)"/>
<circle cx="63.5" cy="63.5" r="63.5" transform="matrix(-1 0 0 1 458 163)" fill="url(#paint104_linear_980_2935)"/>
<circle cx="124" cy="124" r="124" transform="matrix(-1 0 0 1 241 90)" fill="url(#paint105_linear_980_2935)"/>
<circle cx="124" cy="124" r="124" transform="matrix(-1 0 0 1 241 90)" fill="url(#paint106_linear_980_2935)"/>
<circle cx="124" cy="124" r="124" transform="matrix(-1 0 0 1 241 90)" fill="url(#paint107_linear_980_2935)"/>
<circle cx="124" cy="124" r="124" transform="matrix(-1 0 0 1 241 90)" fill="url(#paint108_linear_980_2935)"/>
<circle cx="124" cy="124" r="124" transform="matrix(-1 0 0 1 241 90)" fill="url(#paint109_linear_980_2935)"/>
<circle cx="91.5" cy="91.5" r="91.5" transform="matrix(-1 0 0 1 395 176)" fill="url(#paint110_linear_980_2935)"/>
<circle cx="91.5" cy="91.5" r="91.5" transform="matrix(-1 0 0 1 395 176)" fill="url(#paint111_linear_980_2935)"/>
<circle cx="91.5" cy="91.5" r="91.5" transform="matrix(-1 0 0 1 395 176)" fill="url(#paint112_linear_980_2935)"/>
<circle cx="91.5" cy="91.5" r="91.5" transform="matrix(-1 0 0 1 395 176)" fill="url(#paint113_linear_980_2935)"/>
<circle cx="91.5" cy="91.5" r="91.5" transform="matrix(-1 0 0 1 395 176)" fill="url(#paint114_linear_980_2935)"/>
<circle cx="81" cy="81" r="81" transform="matrix(-1 0 0 1 549 197)" fill="url(#paint115_linear_980_2935)"/>
<circle cx="81" cy="81" r="81" transform="matrix(-1 0 0 1 549 197)" fill="url(#paint116_linear_980_2935)"/>
<circle cx="81" cy="81" r="81" transform="matrix(-1 0 0 1 549 197)" fill="url(#paint117_linear_980_2935)"/>
<circle cx="81" cy="81" r="81" transform="matrix(-1 0 0 1 549 197)" fill="url(#paint118_linear_980_2935)"/>
<circle cx="81" cy="81" r="81" transform="matrix(-1 0 0 1 549 197)" fill="url(#paint119_linear_980_2935)"/>
<circle cx="85" cy="85" r="85" transform="matrix(-1 0 0 1 163 235)" fill="url(#paint120_linear_980_2935)"/>
<circle cx="85" cy="85" r="85" transform="matrix(-1 0 0 1 163 235)" fill="url(#paint121_linear_980_2935)"/>
<circle cx="85" cy="85" r="85" transform="matrix(-1 0 0 1 163 235)" fill="url(#paint122_linear_980_2935)"/>
<circle cx="85" cy="85" r="85" transform="matrix(-1 0 0 1 163 235)" fill="url(#paint123_linear_980_2935)"/>
<circle cx="85" cy="85" r="85" transform="matrix(-1 0 0 1 163 235)" fill="url(#paint124_linear_980_2935)"/>
<circle cx="85" cy="85" r="85" transform="matrix(-1 0 0 1 489 248)" fill="url(#paint125_linear_980_2935)"/>
<circle cx="85" cy="85" r="85" transform="matrix(-1 0 0 1 489 248)" fill="url(#paint126_linear_980_2935)"/>
<circle cx="85" cy="85" r="85" transform="matrix(-1 0 0 1 489 248)" fill="url(#paint127_linear_980_2935)"/>
<circle cx="85" cy="85" r="85" transform="matrix(-1 0 0 1 489 248)" fill="url(#paint128_linear_980_2935)"/>
<circle cx="85" cy="85" r="85" transform="matrix(-1 0 0 1 489 248)" fill="url(#paint129_linear_980_2935)"/>
<circle cx="539" cy="359" r="81" fill="url(#paint130_linear_980_2935)"/>
<circle cx="539" cy="359" r="81" fill="url(#paint131_linear_980_2935)"/>
<circle cx="539" cy="359" r="81" fill="url(#paint132_linear_980_2935)"/>
<circle cx="539" cy="359" r="81" fill="url(#paint133_linear_980_2935)"/>
<circle cx="539" cy="359" r="81" fill="url(#paint134_linear_980_2935)"/>
<circle cx="614" cy="374" r="65" fill="url(#paint135_linear_980_2935)"/>
<circle cx="614" cy="374" r="65" fill="url(#paint136_linear_980_2935)"/>
<circle cx="614" cy="374" r="65" fill="url(#paint137_linear_980_2935)"/>
<circle cx="614" cy="374" r="65" fill="url(#paint138_linear_980_2935)"/>
<circle cx="614" cy="374" r="65" fill="url(#paint139_linear_980_2935)"/>
<circle cx="78.5" cy="78.5" r="78.5" transform="matrix(-1 0 0 1 261 248)" fill="url(#paint140_linear_980_2935)"/>
<circle cx="78.5" cy="78.5" r="78.5" transform="matrix(-1 0 0 1 261 248)" fill="url(#paint141_linear_980_2935)"/>
<circle cx="78.5" cy="78.5" r="78.5" transform="matrix(-1 0 0 1 261 248)" fill="url(#paint142_linear_980_2935)"/>
<circle cx="78.5" cy="78.5" r="78.5" transform="matrix(-1 0 0 1 261 248)" fill="url(#paint143_linear_980_2935)"/>
<circle cx="78.5" cy="78.5" r="78.5" transform="matrix(-1 0 0 1 261 248)" fill="url(#paint144_linear_980_2935)"/>
<circle cx="61.5" cy="61.5" r="61.5" transform="matrix(-1 0 0 1 348 290)" fill="url(#paint145_linear_980_2935)"/>
<circle cx="61.5" cy="61.5" r="61.5" transform="matrix(-1 0 0 1 348 290)" fill="url(#paint146_linear_980_2935)"/>
<circle cx="61.5" cy="61.5" r="61.5" transform="matrix(-1 0 0 1 348 290)" fill="url(#paint147_linear_980_2935)"/>
<circle cx="61.5" cy="61.5" r="61.5" transform="matrix(-1 0 0 1 348 290)" fill="url(#paint148_linear_980_2935)"/>
<circle cx="61.5" cy="61.5" r="61.5" transform="matrix(-1 0 0 1 348 290)" fill="url(#paint149_linear_980_2935)"/>
<defs>
<linearGradient id="paint0_linear_980_2935" x1="1429.89" y1="4.33611e-06" x2="1448.11" y2="248" gradientUnits="userSpaceOnUse">
<stop offset="0.0360681" stop-color="white"/>
<stop offset="1" stop-color="#ABCFFA"/>
</linearGradient>
<linearGradient id="paint1_linear_980_2935" x1="1429.89" y1="4.33611e-06" x2="1448.11" y2="248" gradientUnits="userSpaceOnUse">
<stop offset="0.0360681" stop-color="white"/>
<stop offset="1" stop-color="#ABCFFA"/>
</linearGradient>
<linearGradient id="paint2_linear_980_2935" x1="1429.89" y1="4.33611e-06" x2="1448.11" y2="248" gradientUnits="userSpaceOnUse">
<stop offset="0.0360681" stop-color="white"/>
<stop offset="1" stop-color="#ABCFFA"/>
</linearGradient>
<linearGradient id="paint3_linear_980_2935" x1="1429.89" y1="4.33611e-06" x2="1448.11" y2="248" gradientUnits="userSpaceOnUse">
<stop offset="0.0360681" stop-color="white"/>
<stop offset="1" stop-color="#ABCFFA"/>
</linearGradient>
<linearGradient id="paint4_linear_980_2935" x1="1429.89" y1="4.33611e-06" x2="1448.11" y2="248" gradientUnits="userSpaceOnUse">
<stop offset="0.0360681" stop-color="white"/>
<stop offset="1" stop-color="#ABCFFA"/>
</linearGradient>
<linearGradient id="paint5_linear_980_2935" x1="1287.26" y1="102" x2="1301.74" y2="299" gradientUnits="userSpaceOnUse">
<stop offset="0.0360681" stop-color="white"/>
<stop offset="1" stop-color="#ABCFFA"/>
</linearGradient>
<linearGradient id="paint6_linear_980_2935" x1="1287.26" y1="102" x2="1301.74" y2="299" gradientUnits="userSpaceOnUse">
<stop offset="0.0360681" stop-color="white"/>
<stop offset="1" stop-color="#ABCFFA"/>
</linearGradient>
<linearGradient id="paint7_linear_980_2935" x1="1287.26" y1="102" x2="1301.74" y2="299" gradientUnits="userSpaceOnUse">
<stop offset="0.0360681" stop-color="white"/>
<stop offset="1" stop-color="#ABCFFA"/>
</linearGradient>
<linearGradient id="paint8_linear_980_2935" x1="1287.26" y1="102" x2="1301.74" y2="299" gradientUnits="userSpaceOnUse">
<stop offset="0.0360681" stop-color="white"/>
<stop offset="1" stop-color="#ABCFFA"/>
</linearGradient>
<linearGradient id="paint9_linear_980_2935" x1="1287.26" y1="102" x2="1301.74" y2="299" gradientUnits="userSpaceOnUse">
<stop offset="0.0360681" stop-color="white"/>
<stop offset="1" stop-color="#ABCFFA"/>
</linearGradient>
<linearGradient id="paint10_linear_980_2935" x1="1156.83" y1="163" x2="1166.17" y2="290" gradientUnits="userSpaceOnUse">
<stop offset="0.0360681" stop-color="white"/>
<stop offset="1" stop-color="#ABCFFA"/>
</linearGradient>
<linearGradient id="paint11_linear_980_2935" x1="1156.83" y1="163" x2="1166.17" y2="290" gradientUnits="userSpaceOnUse">
<stop offset="0.0360681" stop-color="white"/>
<stop offset="1" stop-color="#ABCFFA"/>
</linearGradient>
<linearGradient id="paint12_linear_980_2935" x1="1156.83" y1="163" x2="1166.17" y2="290" gradientUnits="userSpaceOnUse">
<stop offset="0.0360681" stop-color="white"/>
<stop offset="1" stop-color="#ABCFFA"/>
</linearGradient>
<linearGradient id="paint13_linear_980_2935" x1="1156.83" y1="163" x2="1166.17" y2="290" gradientUnits="userSpaceOnUse">
<stop offset="0.0360681" stop-color="white"/>
<stop offset="1" stop-color="#ABCFFA"/>
</linearGradient>
<linearGradient id="paint14_linear_980_2935" x1="1156.83" y1="163" x2="1166.17" y2="290" gradientUnits="userSpaceOnUse">
<stop offset="0.0360681" stop-color="white"/>
<stop offset="1" stop-color="#ABCFFA"/>
</linearGradient>
<linearGradient id="paint15_linear_980_2935" x1="1429.89" y1="90" x2="1448.11" y2="338" gradientUnits="userSpaceOnUse">
<stop offset="0.0360681" stop-color="white"/>
<stop offset="1" stop-color="#ABCFFA"/>
</linearGradient>
<linearGradient id="paint16_linear_980_2935" x1="1429.89" y1="90" x2="1448.11" y2="338" gradientUnits="userSpaceOnUse">
<stop offset="0.0360681" stop-color="white"/>
<stop offset="1" stop-color="#ABCFFA"/>
</linearGradient>
<linearGradient id="paint17_linear_980_2935" x1="1429.89" y1="90" x2="1448.11" y2="338" gradientUnits="userSpaceOnUse">
<stop offset="0.0360681" stop-color="white"/>
<stop offset="1" stop-color="#ABCFFA"/>
</linearGradient>
<linearGradient id="paint18_linear_980_2935" x1="1429.89" y1="90" x2="1448.11" y2="338" gradientUnits="userSpaceOnUse">
<stop offset="0.0360681" stop-color="white"/>
<stop offset="1" stop-color="#ABCFFA"/>
</linearGradient>
<linearGradient id="paint19_linear_980_2935" x1="1429.89" y1="90" x2="1448.11" y2="338" gradientUnits="userSpaceOnUse">
<stop offset="0.0360681" stop-color="white"/>
<stop offset="1" stop-color="#ABCFFA"/>
</linearGradient>
<linearGradient id="paint20_linear_980_2935" x1="1245.78" y1="176" x2="1259.22" y2="359" gradientUnits="userSpaceOnUse">
<stop offset="0.0360681" stop-color="white"/>
<stop offset="1" stop-color="#ABCFFA"/>
</linearGradient>
<linearGradient id="paint21_linear_980_2935" x1="1245.78" y1="176" x2="1259.22" y2="359" gradientUnits="userSpaceOnUse">
<stop offset="0.0360681" stop-color="white"/>
<stop offset="1" stop-color="#ABCFFA"/>
</linearGradient>
<linearGradient id="paint22_linear_980_2935" x1="1245.78" y1="176" x2="1259.22" y2="359" gradientUnits="userSpaceOnUse">
<stop offset="0.0360681" stop-color="white"/>
<stop offset="1" stop-color="#ABCFFA"/>
</linearGradient>
<linearGradient id="paint23_linear_980_2935" x1="1245.78" y1="176" x2="1259.22" y2="359" gradientUnits="userSpaceOnUse">
<stop offset="0.0360681" stop-color="white"/>
<stop offset="1" stop-color="#ABCFFA"/>
</linearGradient>
<linearGradient id="paint24_linear_980_2935" x1="1245.78" y1="176" x2="1259.22" y2="359" gradientUnits="userSpaceOnUse">
<stop offset="0.0360681" stop-color="white"/>
<stop offset="1" stop-color="#ABCFFA"/>
</linearGradient>
<linearGradient id="paint25_linear_980_2935" x1="1082.05" y1="197" x2="1093.95" y2="359" gradientUnits="userSpaceOnUse">
<stop offset="0.0360681" stop-color="white"/>
<stop offset="1" stop-color="#ABCFFA"/>
</linearGradient>
<linearGradient id="paint26_linear_980_2935" x1="1082.05" y1="197" x2="1093.95" y2="359" gradientUnits="userSpaceOnUse">
<stop offset="0.0360681" stop-color="white"/>
<stop offset="1" stop-color="#ABCFFA"/>
</linearGradient>
<linearGradient id="paint27_linear_980_2935" x1="1082.05" y1="197" x2="1093.95" y2="359" gradientUnits="userSpaceOnUse">
<stop offset="0.0360681" stop-color="white"/>
<stop offset="1" stop-color="#ABCFFA"/>
</linearGradient>
<linearGradient id="paint28_linear_980_2935" x1="1082.05" y1="197" x2="1093.95" y2="359" gradientUnits="userSpaceOnUse">
<stop offset="0.0360681" stop-color="white"/>
<stop offset="1" stop-color="#ABCFFA"/>
</linearGradient>
<linearGradient id="paint29_linear_980_2935" x1="1082.05" y1="197" x2="1093.95" y2="359" gradientUnits="userSpaceOnUse">
<stop offset="0.0360681" stop-color="white"/>
<stop offset="1" stop-color="#ABCFFA"/>
</linearGradient>
<linearGradient id="paint30_linear_980_2935" x1="621.991" y1="187" x2="638.009" y2="405" gradientUnits="userSpaceOnUse">
<stop offset="0.0360681" stop-color="white"/>
<stop offset="1" stop-color="#ABCFFA"/>
</linearGradient>
<linearGradient id="paint31_linear_980_2935" x1="621.991" y1="187" x2="638.009" y2="405" gradientUnits="userSpaceOnUse">
<stop offset="0.0360681" stop-color="white"/>
<stop offset="1" stop-color="#ABCFFA"/>
</linearGradient>
<linearGradient id="paint32_linear_980_2935" x1="621.991" y1="187" x2="638.009" y2="405" gradientUnits="userSpaceOnUse">
<stop offset="0.0360681" stop-color="white"/>
<stop offset="1" stop-color="#ABCFFA"/>
</linearGradient>
<linearGradient id="paint33_linear_980_2935" x1="621.991" y1="187" x2="638.009" y2="405" gradientUnits="userSpaceOnUse">
<stop offset="0.0360681" stop-color="white"/>
<stop offset="1" stop-color="#ABCFFA"/>
</linearGradient>
<linearGradient id="paint34_linear_980_2935" x1="621.991" y1="187" x2="638.009" y2="405" gradientUnits="userSpaceOnUse">
<stop offset="0.0360681" stop-color="white"/>
<stop offset="1" stop-color="#ABCFFA"/>
</linearGradient>
<linearGradient id="paint35_linear_980_2935" x1="908.991" y1="187" x2="925.009" y2="405" gradientUnits="userSpaceOnUse">
<stop offset="0.0360681" stop-color="white"/>
<stop offset="1" stop-color="#ABCFFA"/>
</linearGradient>
<linearGradient id="paint36_linear_980_2935" x1="908.991" y1="187" x2="925.009" y2="405" gradientUnits="userSpaceOnUse">
<stop offset="0.0360681" stop-color="white"/>
<stop offset="1" stop-color="#ABCFFA"/>
</linearGradient>
<linearGradient id="paint37_linear_980_2935" x1="908.991" y1="187" x2="925.009" y2="405" gradientUnits="userSpaceOnUse">
<stop offset="0.0360681" stop-color="white"/>
<stop offset="1" stop-color="#ABCFFA"/>
</linearGradient>
<linearGradient id="paint38_linear_980_2935" x1="908.991" y1="187" x2="925.009" y2="405" gradientUnits="userSpaceOnUse">
<stop offset="0.0360681" stop-color="white"/>
<stop offset="1" stop-color="#ABCFFA"/>
</linearGradient>
<linearGradient id="paint39_linear_980_2935" x1="908.991" y1="187" x2="925.009" y2="405" gradientUnits="userSpaceOnUse">
<stop offset="0.0360681" stop-color="white"/>
<stop offset="1" stop-color="#ABCFFA"/>
</linearGradient>
<linearGradient id="paint40_linear_980_2935" x1="772.07" y1="245" x2="784.93" y2="420" gradientUnits="userSpaceOnUse">
<stop offset="0.0360681" stop-color="white"/>
<stop offset="1" stop-color="#ABCFFA"/>
</linearGradient>
<linearGradient id="paint41_linear_980_2935" x1="772.07" y1="245" x2="784.93" y2="420" gradientUnits="userSpaceOnUse">
<stop offset="0.0360681" stop-color="white"/>
<stop offset="1" stop-color="#ABCFFA"/>
</linearGradient>
<linearGradient id="paint42_linear_980_2935" x1="772.07" y1="245" x2="784.93" y2="420" gradientUnits="userSpaceOnUse">
<stop offset="0.0360681" stop-color="white"/>
<stop offset="1" stop-color="#ABCFFA"/>
</linearGradient>
<linearGradient id="paint43_linear_980_2935" x1="772.07" y1="245" x2="784.93" y2="420" gradientUnits="userSpaceOnUse">
<stop offset="0.0360681" stop-color="white"/>
<stop offset="1" stop-color="#ABCFFA"/>
</linearGradient>
<linearGradient id="paint44_linear_980_2935" x1="772.07" y1="245" x2="784.93" y2="420" gradientUnits="userSpaceOnUse">
<stop offset="0.0360681" stop-color="white"/>
<stop offset="1" stop-color="#ABCFFA"/>
</linearGradient>
<linearGradient id="paint45_linear_980_2935" x1="843.048" y1="268" x2="854.952" y2="430" gradientUnits="userSpaceOnUse">
<stop offset="0.0360681" stop-color="white"/>
<stop offset="1" stop-color="#ABCFFA"/>
</linearGradient>
<linearGradient id="paint46_linear_980_2935" x1="843.048" y1="268" x2="854.952" y2="430" gradientUnits="userSpaceOnUse">
<stop offset="0.0360681" stop-color="white"/>
<stop offset="1" stop-color="#ABCFFA"/>
</linearGradient>
<linearGradient id="paint47_linear_980_2935" x1="843.048" y1="268" x2="854.952" y2="430" gradientUnits="userSpaceOnUse">
<stop offset="0.0360681" stop-color="white"/>
<stop offset="1" stop-color="#ABCFFA"/>
</linearGradient>
<linearGradient id="paint48_linear_980_2935" x1="843.048" y1="268" x2="854.952" y2="430" gradientUnits="userSpaceOnUse">
<stop offset="0.0360681" stop-color="white"/>
<stop offset="1" stop-color="#ABCFFA"/>
</linearGradient>
<linearGradient id="paint49_linear_980_2935" x1="843.048" y1="268" x2="854.952" y2="430" gradientUnits="userSpaceOnUse">
<stop offset="0.0360681" stop-color="white"/>
<stop offset="1" stop-color="#ABCFFA"/>
</linearGradient>
<linearGradient id="paint50_linear_980_2935" x1="1145.75" y1="248" x2="1158.25" y2="418" gradientUnits="userSpaceOnUse">
<stop offset="0.0360681" stop-color="white"/>
<stop offset="1" stop-color="#ABCFFA"/>
</linearGradient>
<linearGradient id="paint51_linear_980_2935" x1="1145.75" y1="248" x2="1158.25" y2="418" gradientUnits="userSpaceOnUse">
<stop offset="0.0360681" stop-color="white"/>
<stop offset="1" stop-color="#ABCFFA"/>
</linearGradient>
<linearGradient id="paint52_linear_980_2935" x1="1145.75" y1="248" x2="1158.25" y2="418" gradientUnits="userSpaceOnUse">
<stop offset="0.0360681" stop-color="white"/>
<stop offset="1" stop-color="#ABCFFA"/>
</linearGradient>
<linearGradient id="paint53_linear_980_2935" x1="1145.75" y1="248" x2="1158.25" y2="418" gradientUnits="userSpaceOnUse">
<stop offset="0.0360681" stop-color="white"/>
<stop offset="1" stop-color="#ABCFFA"/>
</linearGradient>
<linearGradient id="paint54_linear_980_2935" x1="1145.75" y1="248" x2="1158.25" y2="418" gradientUnits="userSpaceOnUse">
<stop offset="0.0360681" stop-color="white"/>
<stop offset="1" stop-color="#ABCFFA"/>
</linearGradient>
<linearGradient id="paint55_linear_980_2935" x1="1045.05" y1="278" x2="1056.95" y2="440" gradientUnits="userSpaceOnUse">
<stop offset="0.0360681" stop-color="white"/>
<stop offset="1" stop-color="#ABCFFA"/>
</linearGradient>
<linearGradient id="paint56_linear_980_2935" x1="1045.05" y1="278" x2="1056.95" y2="440" gradientUnits="userSpaceOnUse">
<stop offset="0.0360681" stop-color="white"/>
<stop offset="1" stop-color="#ABCFFA"/>
</linearGradient>
<linearGradient id="paint57_linear_980_2935" x1="1045.05" y1="278" x2="1056.95" y2="440" gradientUnits="userSpaceOnUse">
<stop offset="0.0360681" stop-color="white"/>
<stop offset="1" stop-color="#ABCFFA"/>
</linearGradient>
<linearGradient id="paint58_linear_980_2935" x1="1045.05" y1="278" x2="1056.95" y2="440" gradientUnits="userSpaceOnUse">
<stop offset="0.0360681" stop-color="white"/>
<stop offset="1" stop-color="#ABCFFA"/>
</linearGradient>
<linearGradient id="paint59_linear_980_2935" x1="1045.05" y1="278" x2="1056.95" y2="440" gradientUnits="userSpaceOnUse">
<stop offset="0.0360681" stop-color="white"/>
<stop offset="1" stop-color="#ABCFFA"/>
</linearGradient>
<linearGradient id="paint60_linear_980_2935" x1="948.224" y1="304" x2="957.776" y2="434" gradientUnits="userSpaceOnUse">
<stop offset="0.0360681" stop-color="white"/>
<stop offset="1" stop-color="#ABCFFA"/>
</linearGradient>
<linearGradient id="paint61_linear_980_2935" x1="948.224" y1="304" x2="957.776" y2="434" gradientUnits="userSpaceOnUse">
<stop offset="0.0360681" stop-color="white"/>
<stop offset="1" stop-color="#ABCFFA"/>
</linearGradient>
<linearGradient id="paint62_linear_980_2935" x1="948.224" y1="304" x2="957.776" y2="434" gradientUnits="userSpaceOnUse">
<stop offset="0.0360681" stop-color="white"/>
<stop offset="1" stop-color="#ABCFFA"/>
</linearGradient>
<linearGradient id="paint63_linear_980_2935" x1="948.224" y1="304" x2="957.776" y2="434" gradientUnits="userSpaceOnUse">
<stop offset="0.0360681" stop-color="white"/>
<stop offset="1" stop-color="#ABCFFA"/>
</linearGradient>
<linearGradient id="paint64_linear_980_2935" x1="948.224" y1="304" x2="957.776" y2="434" gradientUnits="userSpaceOnUse">
<stop offset="0.0360681" stop-color="white"/>
<stop offset="1" stop-color="#ABCFFA"/>
</linearGradient>
<linearGradient id="paint65_linear_980_2935" x1="694.048" y1="268" x2="705.952" y2="430" gradientUnits="userSpaceOnUse">
<stop offset="0.0360681" stop-color="white"/>
<stop offset="1" stop-color="#ABCFFA"/>
</linearGradient>
<linearGradient id="paint66_linear_980_2935" x1="694.048" y1="268" x2="705.952" y2="430" gradientUnits="userSpaceOnUse">
<stop offset="0.0360681" stop-color="white"/>
<stop offset="1" stop-color="#ABCFFA"/>
</linearGradient>
<linearGradient id="paint67_linear_980_2935" x1="694.048" y1="268" x2="705.952" y2="430" gradientUnits="userSpaceOnUse">
<stop offset="0.0360681" stop-color="white"/>
<stop offset="1" stop-color="#ABCFFA"/>
</linearGradient>
<linearGradient id="paint68_linear_980_2935" x1="694.048" y1="268" x2="705.952" y2="430" gradientUnits="userSpaceOnUse">
<stop offset="0.0360681" stop-color="white"/>
<stop offset="1" stop-color="#ABCFFA"/>
</linearGradient>
<linearGradient id="paint69_linear_980_2935" x1="694.048" y1="268" x2="705.952" y2="430" gradientUnits="userSpaceOnUse">
<stop offset="0.0360681" stop-color="white"/>
<stop offset="1" stop-color="#ABCFFA"/>
</linearGradient>
<linearGradient id="paint70_linear_980_2935" x1="1471.75" y1="235" x2="1484.25" y2="405" gradientUnits="userSpaceOnUse">
<stop offset="0.0360681" stop-color="white"/>
<stop offset="1" stop-color="#ABCFFA"/>
</linearGradient>
<linearGradient id="paint71_linear_980_2935" x1="1471.75" y1="235" x2="1484.25" y2="405" gradientUnits="userSpaceOnUse">
<stop offset="0.0360681" stop-color="white"/>
<stop offset="1" stop-color="#ABCFFA"/>
</linearGradient>
<linearGradient id="paint72_linear_980_2935" x1="1471.75" y1="235" x2="1484.25" y2="405" gradientUnits="userSpaceOnUse">
<stop offset="0.0360681" stop-color="white"/>
<stop offset="1" stop-color="#ABCFFA"/>
</linearGradient>
<linearGradient id="paint73_linear_980_2935" x1="1471.75" y1="235" x2="1484.25" y2="405" gradientUnits="userSpaceOnUse">
<stop offset="0.0360681" stop-color="white"/>
<stop offset="1" stop-color="#ABCFFA"/>
</linearGradient>
<linearGradient id="paint74_linear_980_2935" x1="1471.75" y1="235" x2="1484.25" y2="405" gradientUnits="userSpaceOnUse">
<stop offset="0.0360681" stop-color="white"/>
<stop offset="1" stop-color="#ABCFFA"/>
</linearGradient>
<linearGradient id="paint75_linear_980_2935" x1="762.856" y1="299" x2="773.144" y2="439" gradientUnits="userSpaceOnUse">
<stop offset="0.0360681" stop-color="white"/>
<stop offset="1" stop-color="#ABCFFA"/>
</linearGradient>
<linearGradient id="paint76_linear_980_2935" x1="762.856" y1="299" x2="773.144" y2="439" gradientUnits="userSpaceOnUse">
<stop offset="0.0360681" stop-color="white"/>
<stop offset="1" stop-color="#ABCFFA"/>
</linearGradient>
<linearGradient id="paint77_linear_980_2935" x1="762.856" y1="299" x2="773.144" y2="439" gradientUnits="userSpaceOnUse">
<stop offset="0.0360681" stop-color="white"/>
<stop offset="1" stop-color="#ABCFFA"/>
</linearGradient>
<linearGradient id="paint78_linear_980_2935" x1="762.856" y1="299" x2="773.144" y2="439" gradientUnits="userSpaceOnUse">
<stop offset="0.0360681" stop-color="white"/>
<stop offset="1" stop-color="#ABCFFA"/>
</linearGradient>
<linearGradient id="paint79_linear_980_2935" x1="762.856" y1="299" x2="773.144" y2="439" gradientUnits="userSpaceOnUse">
<stop offset="0.0360681" stop-color="white"/>
<stop offset="1" stop-color="#ABCFFA"/>
</linearGradient>
<linearGradient id="paint80_linear_980_2935" x1="1367.73" y1="248" x2="1379.27" y2="405" gradientUnits="userSpaceOnUse">
<stop offset="0.0360681" stop-color="white"/>
<stop offset="1" stop-color="#ABCFFA"/>
</linearGradient>
<linearGradient id="paint81_linear_980_2935" x1="1367.73" y1="248" x2="1379.27" y2="405" gradientUnits="userSpaceOnUse">
<stop offset="0.0360681" stop-color="white"/>
<stop offset="1" stop-color="#ABCFFA"/>
</linearGradient>
<linearGradient id="paint82_linear_980_2935" x1="1367.73" y1="248" x2="1379.27" y2="405" gradientUnits="userSpaceOnUse">
<stop offset="0.0360681" stop-color="white"/>
<stop offset="1" stop-color="#ABCFFA"/>
</linearGradient>
<linearGradient id="paint83_linear_980_2935" x1="1367.73" y1="248" x2="1379.27" y2="405" gradientUnits="userSpaceOnUse">
<stop offset="0.0360681" stop-color="white"/>
<stop offset="1" stop-color="#ABCFFA"/>
</linearGradient>
<linearGradient id="paint84_linear_980_2935" x1="1367.73" y1="248" x2="1379.27" y2="405" gradientUnits="userSpaceOnUse">
<stop offset="0.0360681" stop-color="white"/>
<stop offset="1" stop-color="#ABCFFA"/>
</linearGradient>
<linearGradient id="paint85_linear_980_2935" x1="1264.98" y1="290" x2="1274.02" y2="413" gradientUnits="userSpaceOnUse">
<stop offset="0.0360681" stop-color="white"/>
<stop offset="1" stop-color="#ABCFFA"/>
</linearGradient>
<linearGradient id="paint86_linear_980_2935" x1="1264.98" y1="290" x2="1274.02" y2="413" gradientUnits="userSpaceOnUse">
<stop offset="0.0360681" stop-color="white"/>
<stop offset="1" stop-color="#ABCFFA"/>
</linearGradient>
<linearGradient id="paint87_linear_980_2935" x1="1264.98" y1="290" x2="1274.02" y2="413" gradientUnits="userSpaceOnUse">
<stop offset="0.0360681" stop-color="white"/>
<stop offset="1" stop-color="#ABCFFA"/>
</linearGradient>
<linearGradient id="paint88_linear_980_2935" x1="1264.98" y1="290" x2="1274.02" y2="413" gradientUnits="userSpaceOnUse">
<stop offset="0.0360681" stop-color="white"/>
<stop offset="1" stop-color="#ABCFFA"/>
</linearGradient>
<linearGradient id="paint89_linear_980_2935" x1="1264.98" y1="290" x2="1274.02" y2="413" gradientUnits="userSpaceOnUse">
<stop offset="0.0360681" stop-color="white"/>
<stop offset="1" stop-color="#ABCFFA"/>
</linearGradient>
<linearGradient id="paint90_linear_980_2935" x1="114.888" y1="4.33611e-06" x2="133.112" y2="248" gradientUnits="userSpaceOnUse">
<stop offset="0.0360681" stop-color="white"/>
<stop offset="1" stop-color="#ABCFFA"/>
</linearGradient>
<linearGradient id="paint91_linear_980_2935" x1="114.888" y1="4.33611e-06" x2="133.112" y2="248" gradientUnits="userSpaceOnUse">
<stop offset="0.0360681" stop-color="white"/>
<stop offset="1" stop-color="#ABCFFA"/>
</linearGradient>
<linearGradient id="paint92_linear_980_2935" x1="114.888" y1="4.33611e-06" x2="133.112" y2="248" gradientUnits="userSpaceOnUse">
<stop offset="0.0360681" stop-color="white"/>
<stop offset="1" stop-color="#ABCFFA"/>
</linearGradient>
<linearGradient id="paint93_linear_980_2935" x1="114.888" y1="4.33611e-06" x2="133.112" y2="248" gradientUnits="userSpaceOnUse">
<stop offset="0.0360681" stop-color="white"/>
<stop offset="1" stop-color="#ABCFFA"/>
</linearGradient>
<linearGradient id="paint94_linear_980_2935" x1="114.888" y1="4.33611e-06" x2="133.112" y2="248" gradientUnits="userSpaceOnUse">
<stop offset="0.0360681" stop-color="white"/>
<stop offset="1" stop-color="#ABCFFA"/>
</linearGradient>
<linearGradient id="paint95_linear_980_2935" x1="91.2621" y1="3.44441e-06" x2="105.738" y2="197" gradientUnits="userSpaceOnUse">
<stop offset="0.0360681" stop-color="white"/>
<stop offset="1" stop-color="#ABCFFA"/>
</linearGradient>
<linearGradient id="paint96_linear_980_2935" x1="91.2621" y1="3.44441e-06" x2="105.738" y2="197" gradientUnits="userSpaceOnUse">
<stop offset="0.0360681" stop-color="white"/>
<stop offset="1" stop-color="#ABCFFA"/>
</linearGradient>
<linearGradient id="paint97_linear_980_2935" x1="91.2621" y1="3.44441e-06" x2="105.738" y2="197" gradientUnits="userSpaceOnUse">
<stop offset="0.0360681" stop-color="white"/>
<stop offset="1" stop-color="#ABCFFA"/>
</linearGradient>
<linearGradient id="paint98_linear_980_2935" x1="91.2621" y1="3.44441e-06" x2="105.738" y2="197" gradientUnits="userSpaceOnUse">
<stop offset="0.0360681" stop-color="white"/>
<stop offset="1" stop-color="#ABCFFA"/>
</linearGradient>
<linearGradient id="paint99_linear_980_2935" x1="91.2621" y1="3.44441e-06" x2="105.738" y2="197" gradientUnits="userSpaceOnUse">
<stop offset="0.0360681" stop-color="white"/>
<stop offset="1" stop-color="#ABCFFA"/>
</linearGradient>
<linearGradient id="paint100_linear_980_2935" x1="58.8339" y1="2.22051e-06" x2="68.166" y2="127" gradientUnits="userSpaceOnUse">
<stop offset="0.0360681" stop-color="white"/>
<stop offset="1" stop-color="#ABCFFA"/>
</linearGradient>
<linearGradient id="paint101_linear_980_2935" x1="58.8339" y1="2.22051e-06" x2="68.166" y2="127" gradientUnits="userSpaceOnUse">
<stop offset="0.0360681" stop-color="white"/>
<stop offset="1" stop-color="#ABCFFA"/>
</linearGradient>
<linearGradient id="paint102_linear_980_2935" x1="58.8339" y1="2.22051e-06" x2="68.166" y2="127" gradientUnits="userSpaceOnUse">
<stop offset="0.0360681" stop-color="white"/>
<stop offset="1" stop-color="#ABCFFA"/>
</linearGradient>
<linearGradient id="paint103_linear_980_2935" x1="58.8339" y1="2.22051e-06" x2="68.166" y2="127" gradientUnits="userSpaceOnUse">
<stop offset="0.0360681" stop-color="white"/>
<stop offset="1" stop-color="#ABCFFA"/>
</linearGradient>
<linearGradient id="paint104_linear_980_2935" x1="58.8339" y1="2.22051e-06" x2="68.166" y2="127" gradientUnits="userSpaceOnUse">
<stop offset="0.0360681" stop-color="white"/>
<stop offset="1" stop-color="#ABCFFA"/>
</linearGradient>
<linearGradient id="paint105_linear_980_2935" x1="114.888" y1="4.33611e-06" x2="133.112" y2="248" gradientUnits="userSpaceOnUse">
<stop offset="0.0360681" stop-color="white"/>
<stop offset="1" stop-color="#ABCFFA"/>
</linearGradient>
<linearGradient id="paint106_linear_980_2935" x1="114.888" y1="4.33611e-06" x2="133.112" y2="248" gradientUnits="userSpaceOnUse">
<stop offset="0.0360681" stop-color="white"/>
<stop offset="1" stop-color="#ABCFFA"/>
</linearGradient>
<linearGradient id="paint107_linear_980_2935" x1="114.888" y1="4.33611e-06" x2="133.112" y2="248" gradientUnits="userSpaceOnUse">
<stop offset="0.0360681" stop-color="white"/>
<stop offset="1" stop-color="#ABCFFA"/>
</linearGradient>
<linearGradient id="paint108_linear_980_2935" x1="114.888" y1="4.33611e-06" x2="133.112" y2="248" gradientUnits="userSpaceOnUse">
<stop offset="0.0360681" stop-color="white"/>
<stop offset="1" stop-color="#ABCFFA"/>
</linearGradient>
<linearGradient id="paint109_linear_980_2935" x1="114.888" y1="4.33611e-06" x2="133.112" y2="248" gradientUnits="userSpaceOnUse">
<stop offset="0.0360681" stop-color="white"/>
<stop offset="1" stop-color="#ABCFFA"/>
</linearGradient>
<linearGradient id="paint110_linear_980_2935" x1="84.7765" y1="3.19963e-06" x2="98.2235" y2="183" gradientUnits="userSpaceOnUse">
<stop offset="0.0360681" stop-color="white"/>
<stop offset="1" stop-color="#ABCFFA"/>
</linearGradient>
<linearGradient id="paint111_linear_980_2935" x1="84.7765" y1="3.19963e-06" x2="98.2235" y2="183" gradientUnits="userSpaceOnUse">
<stop offset="0.0360681" stop-color="white"/>
<stop offset="1" stop-color="#ABCFFA"/>
</linearGradient>
<linearGradient id="paint112_linear_980_2935" x1="84.7765" y1="3.19963e-06" x2="98.2235" y2="183" gradientUnits="userSpaceOnUse">
<stop offset="0.0360681" stop-color="white"/>
<stop offset="1" stop-color="#ABCFFA"/>
</linearGradient>
<linearGradient id="paint113_linear_980_2935" x1="84.7765" y1="3.19963e-06" x2="98.2235" y2="183" gradientUnits="userSpaceOnUse">
<stop offset="0.0360681" stop-color="white"/>
<stop offset="1" stop-color="#ABCFFA"/>
</linearGradient>
<linearGradient id="paint114_linear_980_2935" x1="84.7765" y1="3.19963e-06" x2="98.2235" y2="183" gradientUnits="userSpaceOnUse">
<stop offset="0.0360681" stop-color="white"/>
<stop offset="1" stop-color="#ABCFFA"/>
</linearGradient>
<linearGradient id="paint115_linear_980_2935" x1="75.048" y1="2.83246e-06" x2="86.952" y2="162" gradientUnits="userSpaceOnUse">
<stop offset="0.0360681" stop-color="white"/>
<stop offset="1" stop-color="#ABCFFA"/>
</linearGradient>
<linearGradient id="paint116_linear_980_2935" x1="75.048" y1="2.83246e-06" x2="86.952" y2="162" gradientUnits="userSpaceOnUse">
<stop offset="0.0360681" stop-color="white"/>
<stop offset="1" stop-color="#ABCFFA"/>
</linearGradient>
<linearGradient id="paint117_linear_980_2935" x1="75.048" y1="2.83246e-06" x2="86.952" y2="162" gradientUnits="userSpaceOnUse">
<stop offset="0.0360681" stop-color="white"/>
<stop offset="1" stop-color="#ABCFFA"/>
</linearGradient>
<linearGradient id="paint118_linear_980_2935" x1="75.048" y1="2.83246e-06" x2="86.952" y2="162" gradientUnits="userSpaceOnUse">
<stop offset="0.0360681" stop-color="white"/>
<stop offset="1" stop-color="#ABCFFA"/>
</linearGradient>
<linearGradient id="paint119_linear_980_2935" x1="75.048" y1="2.83246e-06" x2="86.952" y2="162" gradientUnits="userSpaceOnUse">
<stop offset="0.0360681" stop-color="white"/>
<stop offset="1" stop-color="#ABCFFA"/>
</linearGradient>
<linearGradient id="paint120_linear_980_2935" x1="78.7541" y1="2.97233e-06" x2="91.2459" y2="170" gradientUnits="userSpaceOnUse">
<stop offset="0.0360681" stop-color="white"/>
<stop offset="1" stop-color="#ABCFFA"/>
</linearGradient>
<linearGradient id="paint121_linear_980_2935" x1="78.7541" y1="2.97233e-06" x2="91.2459" y2="170" gradientUnits="userSpaceOnUse">
<stop offset="0.0360681" stop-color="white"/>
<stop offset="1" stop-color="#ABCFFA"/>
</linearGradient>
<linearGradient id="paint122_linear_980_2935" x1="78.7541" y1="2.97233e-06" x2="91.2459" y2="170" gradientUnits="userSpaceOnUse">
<stop offset="0.0360681" stop-color="white"/>
<stop offset="1" stop-color="#ABCFFA"/>
</linearGradient>
<linearGradient id="paint123_linear_980_2935" x1="78.7541" y1="2.97233e-06" x2="91.2459" y2="170" gradientUnits="userSpaceOnUse">
<stop offset="0.0360681" stop-color="white"/>
<stop offset="1" stop-color="#ABCFFA"/>
</linearGradient>
<linearGradient id="paint124_linear_980_2935" x1="78.7541" y1="2.97233e-06" x2="91.2459" y2="170" gradientUnits="userSpaceOnUse">
<stop offset="0.0360681" stop-color="white"/>
<stop offset="1" stop-color="#ABCFFA"/>
</linearGradient>
<linearGradient id="paint125_linear_980_2935" x1="78.7541" y1="2.97233e-06" x2="91.2459" y2="170" gradientUnits="userSpaceOnUse">
<stop offset="0.0360681" stop-color="white"/>
<stop offset="1" stop-color="#ABCFFA"/>
</linearGradient>
<linearGradient id="paint126_linear_980_2935" x1="78.7541" y1="2.97233e-06" x2="91.2459" y2="170" gradientUnits="userSpaceOnUse">
<stop offset="0.0360681" stop-color="white"/>
<stop offset="1" stop-color="#ABCFFA"/>
</linearGradient>
<linearGradient id="paint127_linear_980_2935" x1="78.7541" y1="2.97233e-06" x2="91.2459" y2="170" gradientUnits="userSpaceOnUse">
<stop offset="0.0360681" stop-color="white"/>
<stop offset="1" stop-color="#ABCFFA"/>
</linearGradient>
<linearGradient id="paint128_linear_980_2935" x1="78.7541" y1="2.97233e-06" x2="91.2459" y2="170" gradientUnits="userSpaceOnUse">
<stop offset="0.0360681" stop-color="white"/>
<stop offset="1" stop-color="#ABCFFA"/>
</linearGradient>
<linearGradient id="paint129_linear_980_2935" x1="78.7541" y1="2.97233e-06" x2="91.2459" y2="170" gradientUnits="userSpaceOnUse">
<stop offset="0.0360681" stop-color="white"/>
<stop offset="1" stop-color="#ABCFFA"/>
</linearGradient>
<linearGradient id="paint130_linear_980_2935" x1="533.048" y1="278" x2="544.952" y2="440" gradientUnits="userSpaceOnUse">
<stop offset="0.0360681" stop-color="white"/>
<stop offset="1" stop-color="#ABCFFA"/>
</linearGradient>
<linearGradient id="paint131_linear_980_2935" x1="533.048" y1="278" x2="544.952" y2="440" gradientUnits="userSpaceOnUse">
<stop offset="0.0360681" stop-color="white"/>
<stop offset="1" stop-color="#ABCFFA"/>
</linearGradient>
<linearGradient id="paint132_linear_980_2935" x1="533.048" y1="278" x2="544.952" y2="440" gradientUnits="userSpaceOnUse">
<stop offset="0.0360681" stop-color="white"/>
<stop offset="1" stop-color="#ABCFFA"/>
</linearGradient>
<linearGradient id="paint133_linear_980_2935" x1="533.048" y1="278" x2="544.952" y2="440" gradientUnits="userSpaceOnUse">
<stop offset="0.0360681" stop-color="white"/>
<stop offset="1" stop-color="#ABCFFA"/>
</linearGradient>
<linearGradient id="paint134_linear_980_2935" x1="533.048" y1="278" x2="544.952" y2="440" gradientUnits="userSpaceOnUse">
<stop offset="0.0360681" stop-color="white"/>
<stop offset="1" stop-color="#ABCFFA"/>
</linearGradient>
<linearGradient id="paint135_linear_980_2935" x1="609.224" y1="309" x2="618.776" y2="439" gradientUnits="userSpaceOnUse">
<stop offset="0.0360681" stop-color="white"/>
<stop offset="1" stop-color="#ABCFFA"/>
</linearGradient>
<linearGradient id="paint136_linear_980_2935" x1="609.224" y1="309" x2="618.776" y2="439" gradientUnits="userSpaceOnUse">
<stop offset="0.0360681" stop-color="white"/>
<stop offset="1" stop-color="#ABCFFA"/>
</linearGradient>
<linearGradient id="paint137_linear_980_2935" x1="609.224" y1="309" x2="618.776" y2="439" gradientUnits="userSpaceOnUse">
<stop offset="0.0360681" stop-color="white"/>
<stop offset="1" stop-color="#ABCFFA"/>
</linearGradient>
<linearGradient id="paint138_linear_980_2935" x1="609.224" y1="309" x2="618.776" y2="439" gradientUnits="userSpaceOnUse">
<stop offset="0.0360681" stop-color="white"/>
<stop offset="1" stop-color="#ABCFFA"/>
</linearGradient>
<linearGradient id="paint139_linear_980_2935" x1="609.224" y1="309" x2="618.776" y2="439" gradientUnits="userSpaceOnUse">
<stop offset="0.0360681" stop-color="white"/>
<stop offset="1" stop-color="#ABCFFA"/>
</linearGradient>
<linearGradient id="paint140_linear_980_2935" x1="72.7317" y1="2.74504e-06" x2="84.2683" y2="157" gradientUnits="userSpaceOnUse">
<stop offset="0.0360681" stop-color="white"/>
<stop offset="1" stop-color="#ABCFFA"/>
</linearGradient>
<linearGradient id="paint141_linear_980_2935" x1="72.7317" y1="2.74504e-06" x2="84.2683" y2="157" gradientUnits="userSpaceOnUse">
<stop offset="0.0360681" stop-color="white"/>
<stop offset="1" stop-color="#ABCFFA"/>
</linearGradient>
<linearGradient id="paint142_linear_980_2935" x1="72.7317" y1="2.74504e-06" x2="84.2683" y2="157" gradientUnits="userSpaceOnUse">
<stop offset="0.0360681" stop-color="white"/>
<stop offset="1" stop-color="#ABCFFA"/>
</linearGradient>
<linearGradient id="paint143_linear_980_2935" x1="72.7317" y1="2.74504e-06" x2="84.2683" y2="157" gradientUnits="userSpaceOnUse">
<stop offset="0.0360681" stop-color="white"/>
<stop offset="1" stop-color="#ABCFFA"/>
</linearGradient>
<linearGradient id="paint144_linear_980_2935" x1="72.7317" y1="2.74504e-06" x2="84.2683" y2="157" gradientUnits="userSpaceOnUse">
<stop offset="0.0360681" stop-color="white"/>
<stop offset="1" stop-color="#ABCFFA"/>
</linearGradient>
<linearGradient id="paint145_linear_980_2935" x1="56.9809" y1="2.15057e-06" x2="66.0191" y2="123" gradientUnits="userSpaceOnUse">
<stop offset="0.0360681" stop-color="white"/>
<stop offset="1" stop-color="#ABCFFA"/>
</linearGradient>
<linearGradient id="paint146_linear_980_2935" x1="56.9809" y1="2.15057e-06" x2="66.0191" y2="123" gradientUnits="userSpaceOnUse">
<stop offset="0.0360681" stop-color="white"/>
<stop offset="1" stop-color="#ABCFFA"/>
</linearGradient>
<linearGradient id="paint147_linear_980_2935" x1="56.9809" y1="2.15057e-06" x2="66.0191" y2="123" gradientUnits="userSpaceOnUse">
<stop offset="0.0360681" stop-color="white"/>
<stop offset="1" stop-color="#ABCFFA"/>
</linearGradient>
<linearGradient id="paint148_linear_980_2935" x1="56.9809" y1="2.15057e-06" x2="66.0191" y2="123" gradientUnits="userSpaceOnUse">
<stop offset="0.0360681" stop-color="white"/>
<stop offset="1" stop-color="#ABCFFA"/>
</linearGradient>
<linearGradient id="paint149_linear_980_2935" x1="56.9809" y1="2.15057e-06" x2="66.0191" y2="123" gradientUnits="userSpaceOnUse">
<stop offset="0.0360681" stop-color="white"/>
<stop offset="1" stop-color="#ABCFFA"/>
</linearGradient>
</defs>
</svg>
