<svg width="1440" height="367" viewBox="0 0 1440 367" fill="none" xmlns="http://www.w3.org/2000/svg">
<circle cx="1330" cy="124" r="124" fill="url(#paint0_linear_972_2234)"/>
<circle cx="1330" cy="124" r="124" fill="url(#paint1_linear_972_2234)"/>
<circle cx="1330" cy="124" r="124" fill="url(#paint2_linear_972_2234)"/>
<circle cx="1330" cy="124" r="124" fill="url(#paint3_linear_972_2234)"/>
<circle cx="1330" cy="124" r="124" fill="url(#paint4_linear_972_2234)"/>
<circle cx="1185.5" cy="200.5" r="98.5" fill="url(#paint5_linear_972_2234)"/>
<circle cx="1185.5" cy="200.5" r="98.5" fill="url(#paint6_linear_972_2234)"/>
<circle cx="1185.5" cy="200.5" r="98.5" fill="url(#paint7_linear_972_2234)"/>
<circle cx="1185.5" cy="200.5" r="98.5" fill="url(#paint8_linear_972_2234)"/>
<circle cx="1185.5" cy="200.5" r="98.5" fill="url(#paint9_linear_972_2234)"/>
<circle cx="1052.5" cy="226.5" r="63.5" fill="url(#paint10_linear_972_2234)"/>
<circle cx="1052.5" cy="226.5" r="63.5" fill="url(#paint11_linear_972_2234)"/>
<circle cx="1052.5" cy="226.5" r="63.5" fill="url(#paint12_linear_972_2234)"/>
<circle cx="1052.5" cy="226.5" r="63.5" fill="url(#paint13_linear_972_2234)"/>
<circle cx="1052.5" cy="226.5" r="63.5" fill="url(#paint14_linear_972_2234)"/>
<circle cx="1330" cy="214" r="124" fill="url(#paint15_linear_972_2234)"/>
<circle cx="1330" cy="214" r="124" fill="url(#paint16_linear_972_2234)"/>
<circle cx="1330" cy="214" r="124" fill="url(#paint17_linear_972_2234)"/>
<circle cx="1330" cy="214" r="124" fill="url(#paint18_linear_972_2234)"/>
<circle cx="1330" cy="214" r="124" fill="url(#paint19_linear_972_2234)"/>
<circle cx="1143.5" cy="267.5" r="91.5" fill="url(#paint20_linear_972_2234)"/>
<circle cx="1143.5" cy="267.5" r="91.5" fill="url(#paint21_linear_972_2234)"/>
<circle cx="1143.5" cy="267.5" r="91.5" fill="url(#paint22_linear_972_2234)"/>
<circle cx="1143.5" cy="267.5" r="91.5" fill="url(#paint23_linear_972_2234)"/>
<circle cx="1143.5" cy="267.5" r="91.5" fill="url(#paint24_linear_972_2234)"/>
<circle cx="979" cy="278" r="81" fill="url(#paint25_linear_972_2234)"/>
<circle cx="979" cy="278" r="81" fill="url(#paint26_linear_972_2234)"/>
<circle cx="979" cy="278" r="81" fill="url(#paint27_linear_972_2234)"/>
<circle cx="979" cy="278" r="81" fill="url(#paint28_linear_972_2234)"/>
<circle cx="979" cy="278" r="81" fill="url(#paint29_linear_972_2234)"/>
<circle cx="521" cy="296" r="109" fill="url(#paint30_linear_972_2234)"/>
<circle cx="521" cy="296" r="109" fill="url(#paint31_linear_972_2234)"/>
<circle cx="521" cy="296" r="109" fill="url(#paint32_linear_972_2234)"/>
<circle cx="521" cy="296" r="109" fill="url(#paint33_linear_972_2234)"/>
<circle cx="521" cy="296" r="109" fill="url(#paint34_linear_972_2234)"/>
<circle cx="808" cy="296" r="109" fill="url(#paint35_linear_972_2234)"/>
<circle cx="808" cy="296" r="109" fill="url(#paint36_linear_972_2234)"/>
<circle cx="808" cy="296" r="109" fill="url(#paint37_linear_972_2234)"/>
<circle cx="808" cy="296" r="109" fill="url(#paint38_linear_972_2234)"/>
<circle cx="808" cy="296" r="109" fill="url(#paint39_linear_972_2234)"/>
<circle cx="669.5" cy="332.5" r="87.5" fill="url(#paint40_linear_972_2234)"/>
<circle cx="669.5" cy="332.5" r="87.5" fill="url(#paint41_linear_972_2234)"/>
<circle cx="669.5" cy="332.5" r="87.5" fill="url(#paint42_linear_972_2234)"/>
<circle cx="669.5" cy="332.5" r="87.5" fill="url(#paint43_linear_972_2234)"/>
<circle cx="669.5" cy="332.5" r="87.5" fill="url(#paint44_linear_972_2234)"/>
<circle cx="740" cy="349" r="81" fill="url(#paint45_linear_972_2234)"/>
<circle cx="740" cy="349" r="81" fill="url(#paint46_linear_972_2234)"/>
<circle cx="740" cy="349" r="81" fill="url(#paint47_linear_972_2234)"/>
<circle cx="740" cy="349" r="81" fill="url(#paint48_linear_972_2234)"/>
<circle cx="740" cy="349" r="81" fill="url(#paint49_linear_972_2234)"/>
<circle cx="1043" cy="333" r="85" fill="url(#paint50_linear_972_2234)"/>
<circle cx="1043" cy="333" r="85" fill="url(#paint51_linear_972_2234)"/>
<circle cx="1043" cy="333" r="85" fill="url(#paint52_linear_972_2234)"/>
<circle cx="1043" cy="333" r="85" fill="url(#paint53_linear_972_2234)"/>
<circle cx="1043" cy="333" r="85" fill="url(#paint54_linear_972_2234)"/>
<circle cx="942" cy="359" r="81" fill="url(#paint55_linear_972_2234)"/>
<circle cx="942" cy="359" r="81" fill="url(#paint56_linear_972_2234)"/>
<circle cx="942" cy="359" r="81" fill="url(#paint57_linear_972_2234)"/>
<circle cx="942" cy="359" r="81" fill="url(#paint58_linear_972_2234)"/>
<circle cx="942" cy="359" r="81" fill="url(#paint59_linear_972_2234)"/>
<circle cx="844" cy="369" r="65" fill="url(#paint60_linear_972_2234)"/>
<circle cx="844" cy="369" r="65" fill="url(#paint61_linear_972_2234)"/>
<circle cx="844" cy="369" r="65" fill="url(#paint62_linear_972_2234)"/>
<circle cx="844" cy="369" r="65" fill="url(#paint63_linear_972_2234)"/>
<circle cx="844" cy="369" r="65" fill="url(#paint64_linear_972_2234)"/>
<circle cx="591" cy="349" r="81" fill="url(#paint65_linear_972_2234)"/>
<circle cx="591" cy="349" r="81" fill="url(#paint66_linear_972_2234)"/>
<circle cx="591" cy="349" r="81" fill="url(#paint67_linear_972_2234)"/>
<circle cx="591" cy="349" r="81" fill="url(#paint68_linear_972_2234)"/>
<circle cx="591" cy="349" r="81" fill="url(#paint69_linear_972_2234)"/>
<circle cx="1369" cy="320" r="85" fill="url(#paint70_linear_972_2234)"/>
<circle cx="1369" cy="320" r="85" fill="url(#paint71_linear_972_2234)"/>
<circle cx="1369" cy="320" r="85" fill="url(#paint72_linear_972_2234)"/>
<circle cx="1369" cy="320" r="85" fill="url(#paint73_linear_972_2234)"/>
<circle cx="1369" cy="320" r="85" fill="url(#paint74_linear_972_2234)"/>
<circle cx="659" cy="369" r="70" fill="url(#paint75_linear_972_2234)"/>
<circle cx="659" cy="369" r="70" fill="url(#paint76_linear_972_2234)"/>
<circle cx="659" cy="369" r="70" fill="url(#paint77_linear_972_2234)"/>
<circle cx="659" cy="369" r="70" fill="url(#paint78_linear_972_2234)"/>
<circle cx="659" cy="369" r="70" fill="url(#paint79_linear_972_2234)"/>
<circle cx="1264.5" cy="326.5" r="78.5" fill="url(#paint80_linear_972_2234)"/>
<circle cx="1264.5" cy="326.5" r="78.5" fill="url(#paint81_linear_972_2234)"/>
<circle cx="1264.5" cy="326.5" r="78.5" fill="url(#paint82_linear_972_2234)"/>
<circle cx="1264.5" cy="326.5" r="78.5" fill="url(#paint83_linear_972_2234)"/>
<circle cx="1264.5" cy="326.5" r="78.5" fill="url(#paint84_linear_972_2234)"/>
<circle cx="1160.5" cy="351.5" r="61.5" fill="url(#paint85_linear_972_2234)"/>
<circle cx="1160.5" cy="351.5" r="61.5" fill="url(#paint86_linear_972_2234)"/>
<circle cx="1160.5" cy="351.5" r="61.5" fill="url(#paint87_linear_972_2234)"/>
<circle cx="1160.5" cy="351.5" r="61.5" fill="url(#paint88_linear_972_2234)"/>
<circle cx="1160.5" cy="351.5" r="61.5" fill="url(#paint89_linear_972_2234)"/>
<circle cx="124" cy="124" r="124" transform="matrix(-1 0 0 1 132 0)" fill="url(#paint90_linear_972_2234)"/>
<circle cx="124" cy="124" r="124" transform="matrix(-1 0 0 1 132 0)" fill="url(#paint91_linear_972_2234)"/>
<circle cx="124" cy="124" r="124" transform="matrix(-1 0 0 1 132 0)" fill="url(#paint92_linear_972_2234)"/>
<circle cx="124" cy="124" r="124" transform="matrix(-1 0 0 1 132 0)" fill="url(#paint93_linear_972_2234)"/>
<circle cx="124" cy="124" r="124" transform="matrix(-1 0 0 1 132 0)" fill="url(#paint94_linear_972_2234)"/>
<circle cx="98.5" cy="98.5" r="98.5" transform="matrix(-1 0 0 1 251 102)" fill="url(#paint95_linear_972_2234)"/>
<circle cx="98.5" cy="98.5" r="98.5" transform="matrix(-1 0 0 1 251 102)" fill="url(#paint96_linear_972_2234)"/>
<circle cx="98.5" cy="98.5" r="98.5" transform="matrix(-1 0 0 1 251 102)" fill="url(#paint97_linear_972_2234)"/>
<circle cx="98.5" cy="98.5" r="98.5" transform="matrix(-1 0 0 1 251 102)" fill="url(#paint98_linear_972_2234)"/>
<circle cx="98.5" cy="98.5" r="98.5" transform="matrix(-1 0 0 1 251 102)" fill="url(#paint99_linear_972_2234)"/>
<circle cx="63.5" cy="63.5" r="63.5" transform="matrix(-1 0 0 1 349 163)" fill="url(#paint100_linear_972_2234)"/>
<circle cx="63.5" cy="63.5" r="63.5" transform="matrix(-1 0 0 1 349 163)" fill="url(#paint101_linear_972_2234)"/>
<circle cx="63.5" cy="63.5" r="63.5" transform="matrix(-1 0 0 1 349 163)" fill="url(#paint102_linear_972_2234)"/>
<circle cx="63.5" cy="63.5" r="63.5" transform="matrix(-1 0 0 1 349 163)" fill="url(#paint103_linear_972_2234)"/>
<circle cx="63.5" cy="63.5" r="63.5" transform="matrix(-1 0 0 1 349 163)" fill="url(#paint104_linear_972_2234)"/>
<circle cx="124" cy="124" r="124" transform="matrix(-1 0 0 1 132 90)" fill="url(#paint105_linear_972_2234)"/>
<circle cx="124" cy="124" r="124" transform="matrix(-1 0 0 1 132 90)" fill="url(#paint106_linear_972_2234)"/>
<circle cx="124" cy="124" r="124" transform="matrix(-1 0 0 1 132 90)" fill="url(#paint107_linear_972_2234)"/>
<circle cx="124" cy="124" r="124" transform="matrix(-1 0 0 1 132 90)" fill="url(#paint108_linear_972_2234)"/>
<circle cx="124" cy="124" r="124" transform="matrix(-1 0 0 1 132 90)" fill="url(#paint109_linear_972_2234)"/>
<circle cx="91.5" cy="91.5" r="91.5" transform="matrix(-1 0 0 1 286 176)" fill="url(#paint110_linear_972_2234)"/>
<circle cx="91.5" cy="91.5" r="91.5" transform="matrix(-1 0 0 1 286 176)" fill="url(#paint111_linear_972_2234)"/>
<circle cx="91.5" cy="91.5" r="91.5" transform="matrix(-1 0 0 1 286 176)" fill="url(#paint112_linear_972_2234)"/>
<circle cx="91.5" cy="91.5" r="91.5" transform="matrix(-1 0 0 1 286 176)" fill="url(#paint113_linear_972_2234)"/>
<circle cx="91.5" cy="91.5" r="91.5" transform="matrix(-1 0 0 1 286 176)" fill="url(#paint114_linear_972_2234)"/>
<circle cx="81" cy="81" r="81" transform="matrix(-1 0 0 1 440 197)" fill="url(#paint115_linear_972_2234)"/>
<circle cx="81" cy="81" r="81" transform="matrix(-1 0 0 1 440 197)" fill="url(#paint116_linear_972_2234)"/>
<circle cx="81" cy="81" r="81" transform="matrix(-1 0 0 1 440 197)" fill="url(#paint117_linear_972_2234)"/>
<circle cx="81" cy="81" r="81" transform="matrix(-1 0 0 1 440 197)" fill="url(#paint118_linear_972_2234)"/>
<circle cx="81" cy="81" r="81" transform="matrix(-1 0 0 1 440 197)" fill="url(#paint119_linear_972_2234)"/>
<circle cx="85" cy="85" r="85" transform="matrix(-1 0 0 1 54 235)" fill="url(#paint120_linear_972_2234)"/>
<circle cx="85" cy="85" r="85" transform="matrix(-1 0 0 1 54 235)" fill="url(#paint121_linear_972_2234)"/>
<circle cx="85" cy="85" r="85" transform="matrix(-1 0 0 1 54 235)" fill="url(#paint122_linear_972_2234)"/>
<circle cx="85" cy="85" r="85" transform="matrix(-1 0 0 1 54 235)" fill="url(#paint123_linear_972_2234)"/>
<circle cx="85" cy="85" r="85" transform="matrix(-1 0 0 1 54 235)" fill="url(#paint124_linear_972_2234)"/>
<circle cx="85" cy="85" r="85" transform="matrix(-1 0 0 1 380 248)" fill="url(#paint125_linear_972_2234)"/>
<circle cx="85" cy="85" r="85" transform="matrix(-1 0 0 1 380 248)" fill="url(#paint126_linear_972_2234)"/>
<circle cx="85" cy="85" r="85" transform="matrix(-1 0 0 1 380 248)" fill="url(#paint127_linear_972_2234)"/>
<circle cx="85" cy="85" r="85" transform="matrix(-1 0 0 1 380 248)" fill="url(#paint128_linear_972_2234)"/>
<circle cx="85" cy="85" r="85" transform="matrix(-1 0 0 1 380 248)" fill="url(#paint129_linear_972_2234)"/>
<circle cx="430" cy="359" r="81" fill="url(#paint130_linear_972_2234)"/>
<circle cx="430" cy="359" r="81" fill="url(#paint131_linear_972_2234)"/>
<circle cx="430" cy="359" r="81" fill="url(#paint132_linear_972_2234)"/>
<circle cx="430" cy="359" r="81" fill="url(#paint133_linear_972_2234)"/>
<circle cx="430" cy="359" r="81" fill="url(#paint134_linear_972_2234)"/>
<circle cx="505" cy="374" r="65" fill="url(#paint135_linear_972_2234)"/>
<circle cx="505" cy="374" r="65" fill="url(#paint136_linear_972_2234)"/>
<circle cx="505" cy="374" r="65" fill="url(#paint137_linear_972_2234)"/>
<circle cx="505" cy="374" r="65" fill="url(#paint138_linear_972_2234)"/>
<circle cx="505" cy="374" r="65" fill="url(#paint139_linear_972_2234)"/>
<circle cx="78.5" cy="78.5" r="78.5" transform="matrix(-1 0 0 1 152 248)" fill="url(#paint140_linear_972_2234)"/>
<circle cx="78.5" cy="78.5" r="78.5" transform="matrix(-1 0 0 1 152 248)" fill="url(#paint141_linear_972_2234)"/>
<circle cx="78.5" cy="78.5" r="78.5" transform="matrix(-1 0 0 1 152 248)" fill="url(#paint142_linear_972_2234)"/>
<circle cx="78.5" cy="78.5" r="78.5" transform="matrix(-1 0 0 1 152 248)" fill="url(#paint143_linear_972_2234)"/>
<circle cx="78.5" cy="78.5" r="78.5" transform="matrix(-1 0 0 1 152 248)" fill="url(#paint144_linear_972_2234)"/>
<circle cx="61.5" cy="61.5" r="61.5" transform="matrix(-1 0 0 1 239 290)" fill="url(#paint145_linear_972_2234)"/>
<circle cx="61.5" cy="61.5" r="61.5" transform="matrix(-1 0 0 1 239 290)" fill="url(#paint146_linear_972_2234)"/>
<circle cx="61.5" cy="61.5" r="61.5" transform="matrix(-1 0 0 1 239 290)" fill="url(#paint147_linear_972_2234)"/>
<circle cx="61.5" cy="61.5" r="61.5" transform="matrix(-1 0 0 1 239 290)" fill="url(#paint148_linear_972_2234)"/>
<circle cx="61.5" cy="61.5" r="61.5" transform="matrix(-1 0 0 1 239 290)" fill="url(#paint149_linear_972_2234)"/>
<defs>
<linearGradient id="paint0_linear_972_2234" x1="1320.89" y1="4.33611e-06" x2="1339.11" y2="248" gradientUnits="userSpaceOnUse">
<stop offset="0.0360681" stop-color="white"/>
<stop offset="1" stop-color="#ABCFFA"/>
</linearGradient>
<linearGradient id="paint1_linear_972_2234" x1="1320.89" y1="4.33611e-06" x2="1339.11" y2="248" gradientUnits="userSpaceOnUse">
<stop offset="0.0360681" stop-color="white"/>
<stop offset="1" stop-color="#ABCFFA"/>
</linearGradient>
<linearGradient id="paint2_linear_972_2234" x1="1320.89" y1="4.33611e-06" x2="1339.11" y2="248" gradientUnits="userSpaceOnUse">
<stop offset="0.0360681" stop-color="white"/>
<stop offset="1" stop-color="#ABCFFA"/>
</linearGradient>
<linearGradient id="paint3_linear_972_2234" x1="1320.89" y1="4.33611e-06" x2="1339.11" y2="248" gradientUnits="userSpaceOnUse">
<stop offset="0.0360681" stop-color="white"/>
<stop offset="1" stop-color="#ABCFFA"/>
</linearGradient>
<linearGradient id="paint4_linear_972_2234" x1="1320.89" y1="4.33611e-06" x2="1339.11" y2="248" gradientUnits="userSpaceOnUse">
<stop offset="0.0360681" stop-color="white"/>
<stop offset="1" stop-color="#ABCFFA"/>
</linearGradient>
<linearGradient id="paint5_linear_972_2234" x1="1178.26" y1="102" x2="1192.74" y2="299" gradientUnits="userSpaceOnUse">
<stop offset="0.0360681" stop-color="white"/>
<stop offset="1" stop-color="#ABCFFA"/>
</linearGradient>
<linearGradient id="paint6_linear_972_2234" x1="1178.26" y1="102" x2="1192.74" y2="299" gradientUnits="userSpaceOnUse">
<stop offset="0.0360681" stop-color="white"/>
<stop offset="1" stop-color="#ABCFFA"/>
</linearGradient>
<linearGradient id="paint7_linear_972_2234" x1="1178.26" y1="102" x2="1192.74" y2="299" gradientUnits="userSpaceOnUse">
<stop offset="0.0360681" stop-color="white"/>
<stop offset="1" stop-color="#ABCFFA"/>
</linearGradient>
<linearGradient id="paint8_linear_972_2234" x1="1178.26" y1="102" x2="1192.74" y2="299" gradientUnits="userSpaceOnUse">
<stop offset="0.0360681" stop-color="white"/>
<stop offset="1" stop-color="#ABCFFA"/>
</linearGradient>
<linearGradient id="paint9_linear_972_2234" x1="1178.26" y1="102" x2="1192.74" y2="299" gradientUnits="userSpaceOnUse">
<stop offset="0.0360681" stop-color="white"/>
<stop offset="1" stop-color="#ABCFFA"/>
</linearGradient>
<linearGradient id="paint10_linear_972_2234" x1="1047.83" y1="163" x2="1057.17" y2="290" gradientUnits="userSpaceOnUse">
<stop offset="0.0360681" stop-color="white"/>
<stop offset="1" stop-color="#ABCFFA"/>
</linearGradient>
<linearGradient id="paint11_linear_972_2234" x1="1047.83" y1="163" x2="1057.17" y2="290" gradientUnits="userSpaceOnUse">
<stop offset="0.0360681" stop-color="white"/>
<stop offset="1" stop-color="#ABCFFA"/>
</linearGradient>
<linearGradient id="paint12_linear_972_2234" x1="1047.83" y1="163" x2="1057.17" y2="290" gradientUnits="userSpaceOnUse">
<stop offset="0.0360681" stop-color="white"/>
<stop offset="1" stop-color="#ABCFFA"/>
</linearGradient>
<linearGradient id="paint13_linear_972_2234" x1="1047.83" y1="163" x2="1057.17" y2="290" gradientUnits="userSpaceOnUse">
<stop offset="0.0360681" stop-color="white"/>
<stop offset="1" stop-color="#ABCFFA"/>
</linearGradient>
<linearGradient id="paint14_linear_972_2234" x1="1047.83" y1="163" x2="1057.17" y2="290" gradientUnits="userSpaceOnUse">
<stop offset="0.0360681" stop-color="white"/>
<stop offset="1" stop-color="#ABCFFA"/>
</linearGradient>
<linearGradient id="paint15_linear_972_2234" x1="1320.89" y1="90" x2="1339.11" y2="338" gradientUnits="userSpaceOnUse">
<stop offset="0.0360681" stop-color="white"/>
<stop offset="1" stop-color="#ABCFFA"/>
</linearGradient>
<linearGradient id="paint16_linear_972_2234" x1="1320.89" y1="90" x2="1339.11" y2="338" gradientUnits="userSpaceOnUse">
<stop offset="0.0360681" stop-color="white"/>
<stop offset="1" stop-color="#ABCFFA"/>
</linearGradient>
<linearGradient id="paint17_linear_972_2234" x1="1320.89" y1="90" x2="1339.11" y2="338" gradientUnits="userSpaceOnUse">
<stop offset="0.0360681" stop-color="white"/>
<stop offset="1" stop-color="#ABCFFA"/>
</linearGradient>
<linearGradient id="paint18_linear_972_2234" x1="1320.89" y1="90" x2="1339.11" y2="338" gradientUnits="userSpaceOnUse">
<stop offset="0.0360681" stop-color="white"/>
<stop offset="1" stop-color="#ABCFFA"/>
</linearGradient>
<linearGradient id="paint19_linear_972_2234" x1="1320.89" y1="90" x2="1339.11" y2="338" gradientUnits="userSpaceOnUse">
<stop offset="0.0360681" stop-color="white"/>
<stop offset="1" stop-color="#ABCFFA"/>
</linearGradient>
<linearGradient id="paint20_linear_972_2234" x1="1136.78" y1="176" x2="1150.22" y2="359" gradientUnits="userSpaceOnUse">
<stop offset="0.0360681" stop-color="white"/>
<stop offset="1" stop-color="#ABCFFA"/>
</linearGradient>
<linearGradient id="paint21_linear_972_2234" x1="1136.78" y1="176" x2="1150.22" y2="359" gradientUnits="userSpaceOnUse">
<stop offset="0.0360681" stop-color="white"/>
<stop offset="1" stop-color="#ABCFFA"/>
</linearGradient>
<linearGradient id="paint22_linear_972_2234" x1="1136.78" y1="176" x2="1150.22" y2="359" gradientUnits="userSpaceOnUse">
<stop offset="0.0360681" stop-color="white"/>
<stop offset="1" stop-color="#ABCFFA"/>
</linearGradient>
<linearGradient id="paint23_linear_972_2234" x1="1136.78" y1="176" x2="1150.22" y2="359" gradientUnits="userSpaceOnUse">
<stop offset="0.0360681" stop-color="white"/>
<stop offset="1" stop-color="#ABCFFA"/>
</linearGradient>
<linearGradient id="paint24_linear_972_2234" x1="1136.78" y1="176" x2="1150.22" y2="359" gradientUnits="userSpaceOnUse">
<stop offset="0.0360681" stop-color="white"/>
<stop offset="1" stop-color="#ABCFFA"/>
</linearGradient>
<linearGradient id="paint25_linear_972_2234" x1="973.048" y1="197" x2="984.952" y2="359" gradientUnits="userSpaceOnUse">
<stop offset="0.0360681" stop-color="white"/>
<stop offset="1" stop-color="#ABCFFA"/>
</linearGradient>
<linearGradient id="paint26_linear_972_2234" x1="973.048" y1="197" x2="984.952" y2="359" gradientUnits="userSpaceOnUse">
<stop offset="0.0360681" stop-color="white"/>
<stop offset="1" stop-color="#ABCFFA"/>
</linearGradient>
<linearGradient id="paint27_linear_972_2234" x1="973.048" y1="197" x2="984.952" y2="359" gradientUnits="userSpaceOnUse">
<stop offset="0.0360681" stop-color="white"/>
<stop offset="1" stop-color="#ABCFFA"/>
</linearGradient>
<linearGradient id="paint28_linear_972_2234" x1="973.048" y1="197" x2="984.952" y2="359" gradientUnits="userSpaceOnUse">
<stop offset="0.0360681" stop-color="white"/>
<stop offset="1" stop-color="#ABCFFA"/>
</linearGradient>
<linearGradient id="paint29_linear_972_2234" x1="973.048" y1="197" x2="984.952" y2="359" gradientUnits="userSpaceOnUse">
<stop offset="0.0360681" stop-color="white"/>
<stop offset="1" stop-color="#ABCFFA"/>
</linearGradient>
<linearGradient id="paint30_linear_972_2234" x1="512.991" y1="187" x2="529.009" y2="405" gradientUnits="userSpaceOnUse">
<stop offset="0.0360681" stop-color="white"/>
<stop offset="1" stop-color="#ABCFFA"/>
</linearGradient>
<linearGradient id="paint31_linear_972_2234" x1="512.991" y1="187" x2="529.009" y2="405" gradientUnits="userSpaceOnUse">
<stop offset="0.0360681" stop-color="white"/>
<stop offset="1" stop-color="#ABCFFA"/>
</linearGradient>
<linearGradient id="paint32_linear_972_2234" x1="512.991" y1="187" x2="529.009" y2="405" gradientUnits="userSpaceOnUse">
<stop offset="0.0360681" stop-color="white"/>
<stop offset="1" stop-color="#ABCFFA"/>
</linearGradient>
<linearGradient id="paint33_linear_972_2234" x1="512.991" y1="187" x2="529.009" y2="405" gradientUnits="userSpaceOnUse">
<stop offset="0.0360681" stop-color="white"/>
<stop offset="1" stop-color="#ABCFFA"/>
</linearGradient>
<linearGradient id="paint34_linear_972_2234" x1="512.991" y1="187" x2="529.009" y2="405" gradientUnits="userSpaceOnUse">
<stop offset="0.0360681" stop-color="white"/>
<stop offset="1" stop-color="#ABCFFA"/>
</linearGradient>
<linearGradient id="paint35_linear_972_2234" x1="799.991" y1="187" x2="816.009" y2="405" gradientUnits="userSpaceOnUse">
<stop offset="0.0360681" stop-color="white"/>
<stop offset="1" stop-color="#ABCFFA"/>
</linearGradient>
<linearGradient id="paint36_linear_972_2234" x1="799.991" y1="187" x2="816.009" y2="405" gradientUnits="userSpaceOnUse">
<stop offset="0.0360681" stop-color="white"/>
<stop offset="1" stop-color="#ABCFFA"/>
</linearGradient>
<linearGradient id="paint37_linear_972_2234" x1="799.991" y1="187" x2="816.009" y2="405" gradientUnits="userSpaceOnUse">
<stop offset="0.0360681" stop-color="white"/>
<stop offset="1" stop-color="#ABCFFA"/>
</linearGradient>
<linearGradient id="paint38_linear_972_2234" x1="799.991" y1="187" x2="816.009" y2="405" gradientUnits="userSpaceOnUse">
<stop offset="0.0360681" stop-color="white"/>
<stop offset="1" stop-color="#ABCFFA"/>
</linearGradient>
<linearGradient id="paint39_linear_972_2234" x1="799.991" y1="187" x2="816.009" y2="405" gradientUnits="userSpaceOnUse">
<stop offset="0.0360681" stop-color="white"/>
<stop offset="1" stop-color="#ABCFFA"/>
</linearGradient>
<linearGradient id="paint40_linear_972_2234" x1="663.07" y1="245" x2="675.93" y2="420" gradientUnits="userSpaceOnUse">
<stop offset="0.0360681" stop-color="white"/>
<stop offset="1" stop-color="#ABCFFA"/>
</linearGradient>
<linearGradient id="paint41_linear_972_2234" x1="663.07" y1="245" x2="675.93" y2="420" gradientUnits="userSpaceOnUse">
<stop offset="0.0360681" stop-color="white"/>
<stop offset="1" stop-color="#ABCFFA"/>
</linearGradient>
<linearGradient id="paint42_linear_972_2234" x1="663.07" y1="245" x2="675.93" y2="420" gradientUnits="userSpaceOnUse">
<stop offset="0.0360681" stop-color="white"/>
<stop offset="1" stop-color="#ABCFFA"/>
</linearGradient>
<linearGradient id="paint43_linear_972_2234" x1="663.07" y1="245" x2="675.93" y2="420" gradientUnits="userSpaceOnUse">
<stop offset="0.0360681" stop-color="white"/>
<stop offset="1" stop-color="#ABCFFA"/>
</linearGradient>
<linearGradient id="paint44_linear_972_2234" x1="663.07" y1="245" x2="675.93" y2="420" gradientUnits="userSpaceOnUse">
<stop offset="0.0360681" stop-color="white"/>
<stop offset="1" stop-color="#ABCFFA"/>
</linearGradient>
<linearGradient id="paint45_linear_972_2234" x1="734.048" y1="268" x2="745.952" y2="430" gradientUnits="userSpaceOnUse">
<stop offset="0.0360681" stop-color="white"/>
<stop offset="1" stop-color="#ABCFFA"/>
</linearGradient>
<linearGradient id="paint46_linear_972_2234" x1="734.048" y1="268" x2="745.952" y2="430" gradientUnits="userSpaceOnUse">
<stop offset="0.0360681" stop-color="white"/>
<stop offset="1" stop-color="#ABCFFA"/>
</linearGradient>
<linearGradient id="paint47_linear_972_2234" x1="734.048" y1="268" x2="745.952" y2="430" gradientUnits="userSpaceOnUse">
<stop offset="0.0360681" stop-color="white"/>
<stop offset="1" stop-color="#ABCFFA"/>
</linearGradient>
<linearGradient id="paint48_linear_972_2234" x1="734.048" y1="268" x2="745.952" y2="430" gradientUnits="userSpaceOnUse">
<stop offset="0.0360681" stop-color="white"/>
<stop offset="1" stop-color="#ABCFFA"/>
</linearGradient>
<linearGradient id="paint49_linear_972_2234" x1="734.048" y1="268" x2="745.952" y2="430" gradientUnits="userSpaceOnUse">
<stop offset="0.0360681" stop-color="white"/>
<stop offset="1" stop-color="#ABCFFA"/>
</linearGradient>
<linearGradient id="paint50_linear_972_2234" x1="1036.75" y1="248" x2="1049.25" y2="418" gradientUnits="userSpaceOnUse">
<stop offset="0.0360681" stop-color="white"/>
<stop offset="1" stop-color="#ABCFFA"/>
</linearGradient>
<linearGradient id="paint51_linear_972_2234" x1="1036.75" y1="248" x2="1049.25" y2="418" gradientUnits="userSpaceOnUse">
<stop offset="0.0360681" stop-color="white"/>
<stop offset="1" stop-color="#ABCFFA"/>
</linearGradient>
<linearGradient id="paint52_linear_972_2234" x1="1036.75" y1="248" x2="1049.25" y2="418" gradientUnits="userSpaceOnUse">
<stop offset="0.0360681" stop-color="white"/>
<stop offset="1" stop-color="#ABCFFA"/>
</linearGradient>
<linearGradient id="paint53_linear_972_2234" x1="1036.75" y1="248" x2="1049.25" y2="418" gradientUnits="userSpaceOnUse">
<stop offset="0.0360681" stop-color="white"/>
<stop offset="1" stop-color="#ABCFFA"/>
</linearGradient>
<linearGradient id="paint54_linear_972_2234" x1="1036.75" y1="248" x2="1049.25" y2="418" gradientUnits="userSpaceOnUse">
<stop offset="0.0360681" stop-color="white"/>
<stop offset="1" stop-color="#ABCFFA"/>
</linearGradient>
<linearGradient id="paint55_linear_972_2234" x1="936.048" y1="278" x2="947.952" y2="440" gradientUnits="userSpaceOnUse">
<stop offset="0.0360681" stop-color="white"/>
<stop offset="1" stop-color="#ABCFFA"/>
</linearGradient>
<linearGradient id="paint56_linear_972_2234" x1="936.048" y1="278" x2="947.952" y2="440" gradientUnits="userSpaceOnUse">
<stop offset="0.0360681" stop-color="white"/>
<stop offset="1" stop-color="#ABCFFA"/>
</linearGradient>
<linearGradient id="paint57_linear_972_2234" x1="936.048" y1="278" x2="947.952" y2="440" gradientUnits="userSpaceOnUse">
<stop offset="0.0360681" stop-color="white"/>
<stop offset="1" stop-color="#ABCFFA"/>
</linearGradient>
<linearGradient id="paint58_linear_972_2234" x1="936.048" y1="278" x2="947.952" y2="440" gradientUnits="userSpaceOnUse">
<stop offset="0.0360681" stop-color="white"/>
<stop offset="1" stop-color="#ABCFFA"/>
</linearGradient>
<linearGradient id="paint59_linear_972_2234" x1="936.048" y1="278" x2="947.952" y2="440" gradientUnits="userSpaceOnUse">
<stop offset="0.0360681" stop-color="white"/>
<stop offset="1" stop-color="#ABCFFA"/>
</linearGradient>
<linearGradient id="paint60_linear_972_2234" x1="839.224" y1="304" x2="848.776" y2="434" gradientUnits="userSpaceOnUse">
<stop offset="0.0360681" stop-color="white"/>
<stop offset="1" stop-color="#ABCFFA"/>
</linearGradient>
<linearGradient id="paint61_linear_972_2234" x1="839.224" y1="304" x2="848.776" y2="434" gradientUnits="userSpaceOnUse">
<stop offset="0.0360681" stop-color="white"/>
<stop offset="1" stop-color="#ABCFFA"/>
</linearGradient>
<linearGradient id="paint62_linear_972_2234" x1="839.224" y1="304" x2="848.776" y2="434" gradientUnits="userSpaceOnUse">
<stop offset="0.0360681" stop-color="white"/>
<stop offset="1" stop-color="#ABCFFA"/>
</linearGradient>
<linearGradient id="paint63_linear_972_2234" x1="839.224" y1="304" x2="848.776" y2="434" gradientUnits="userSpaceOnUse">
<stop offset="0.0360681" stop-color="white"/>
<stop offset="1" stop-color="#ABCFFA"/>
</linearGradient>
<linearGradient id="paint64_linear_972_2234" x1="839.224" y1="304" x2="848.776" y2="434" gradientUnits="userSpaceOnUse">
<stop offset="0.0360681" stop-color="white"/>
<stop offset="1" stop-color="#ABCFFA"/>
</linearGradient>
<linearGradient id="paint65_linear_972_2234" x1="585.048" y1="268" x2="596.952" y2="430" gradientUnits="userSpaceOnUse">
<stop offset="0.0360681" stop-color="white"/>
<stop offset="1" stop-color="#ABCFFA"/>
</linearGradient>
<linearGradient id="paint66_linear_972_2234" x1="585.048" y1="268" x2="596.952" y2="430" gradientUnits="userSpaceOnUse">
<stop offset="0.0360681" stop-color="white"/>
<stop offset="1" stop-color="#ABCFFA"/>
</linearGradient>
<linearGradient id="paint67_linear_972_2234" x1="585.048" y1="268" x2="596.952" y2="430" gradientUnits="userSpaceOnUse">
<stop offset="0.0360681" stop-color="white"/>
<stop offset="1" stop-color="#ABCFFA"/>
</linearGradient>
<linearGradient id="paint68_linear_972_2234" x1="585.048" y1="268" x2="596.952" y2="430" gradientUnits="userSpaceOnUse">
<stop offset="0.0360681" stop-color="white"/>
<stop offset="1" stop-color="#ABCFFA"/>
</linearGradient>
<linearGradient id="paint69_linear_972_2234" x1="585.048" y1="268" x2="596.952" y2="430" gradientUnits="userSpaceOnUse">
<stop offset="0.0360681" stop-color="white"/>
<stop offset="1" stop-color="#ABCFFA"/>
</linearGradient>
<linearGradient id="paint70_linear_972_2234" x1="1362.75" y1="235" x2="1375.25" y2="405" gradientUnits="userSpaceOnUse">
<stop offset="0.0360681" stop-color="white"/>
<stop offset="1" stop-color="#ABCFFA"/>
</linearGradient>
<linearGradient id="paint71_linear_972_2234" x1="1362.75" y1="235" x2="1375.25" y2="405" gradientUnits="userSpaceOnUse">
<stop offset="0.0360681" stop-color="white"/>
<stop offset="1" stop-color="#ABCFFA"/>
</linearGradient>
<linearGradient id="paint72_linear_972_2234" x1="1362.75" y1="235" x2="1375.25" y2="405" gradientUnits="userSpaceOnUse">
<stop offset="0.0360681" stop-color="white"/>
<stop offset="1" stop-color="#ABCFFA"/>
</linearGradient>
<linearGradient id="paint73_linear_972_2234" x1="1362.75" y1="235" x2="1375.25" y2="405" gradientUnits="userSpaceOnUse">
<stop offset="0.0360681" stop-color="white"/>
<stop offset="1" stop-color="#ABCFFA"/>
</linearGradient>
<linearGradient id="paint74_linear_972_2234" x1="1362.75" y1="235" x2="1375.25" y2="405" gradientUnits="userSpaceOnUse">
<stop offset="0.0360681" stop-color="white"/>
<stop offset="1" stop-color="#ABCFFA"/>
</linearGradient>
<linearGradient id="paint75_linear_972_2234" x1="653.856" y1="299" x2="664.144" y2="439" gradientUnits="userSpaceOnUse">
<stop offset="0.0360681" stop-color="white"/>
<stop offset="1" stop-color="#ABCFFA"/>
</linearGradient>
<linearGradient id="paint76_linear_972_2234" x1="653.856" y1="299" x2="664.144" y2="439" gradientUnits="userSpaceOnUse">
<stop offset="0.0360681" stop-color="white"/>
<stop offset="1" stop-color="#ABCFFA"/>
</linearGradient>
<linearGradient id="paint77_linear_972_2234" x1="653.856" y1="299" x2="664.144" y2="439" gradientUnits="userSpaceOnUse">
<stop offset="0.0360681" stop-color="white"/>
<stop offset="1" stop-color="#ABCFFA"/>
</linearGradient>
<linearGradient id="paint78_linear_972_2234" x1="653.856" y1="299" x2="664.144" y2="439" gradientUnits="userSpaceOnUse">
<stop offset="0.0360681" stop-color="white"/>
<stop offset="1" stop-color="#ABCFFA"/>
</linearGradient>
<linearGradient id="paint79_linear_972_2234" x1="653.856" y1="299" x2="664.144" y2="439" gradientUnits="userSpaceOnUse">
<stop offset="0.0360681" stop-color="white"/>
<stop offset="1" stop-color="#ABCFFA"/>
</linearGradient>
<linearGradient id="paint80_linear_972_2234" x1="1258.73" y1="248" x2="1270.27" y2="405" gradientUnits="userSpaceOnUse">
<stop offset="0.0360681" stop-color="white"/>
<stop offset="1" stop-color="#ABCFFA"/>
</linearGradient>
<linearGradient id="paint81_linear_972_2234" x1="1258.73" y1="248" x2="1270.27" y2="405" gradientUnits="userSpaceOnUse">
<stop offset="0.0360681" stop-color="white"/>
<stop offset="1" stop-color="#ABCFFA"/>
</linearGradient>
<linearGradient id="paint82_linear_972_2234" x1="1258.73" y1="248" x2="1270.27" y2="405" gradientUnits="userSpaceOnUse">
<stop offset="0.0360681" stop-color="white"/>
<stop offset="1" stop-color="#ABCFFA"/>
</linearGradient>
<linearGradient id="paint83_linear_972_2234" x1="1258.73" y1="248" x2="1270.27" y2="405" gradientUnits="userSpaceOnUse">
<stop offset="0.0360681" stop-color="white"/>
<stop offset="1" stop-color="#ABCFFA"/>
</linearGradient>
<linearGradient id="paint84_linear_972_2234" x1="1258.73" y1="248" x2="1270.27" y2="405" gradientUnits="userSpaceOnUse">
<stop offset="0.0360681" stop-color="white"/>
<stop offset="1" stop-color="#ABCFFA"/>
</linearGradient>
<linearGradient id="paint85_linear_972_2234" x1="1155.98" y1="290" x2="1165.02" y2="413" gradientUnits="userSpaceOnUse">
<stop offset="0.0360681" stop-color="white"/>
<stop offset="1" stop-color="#ABCFFA"/>
</linearGradient>
<linearGradient id="paint86_linear_972_2234" x1="1155.98" y1="290" x2="1165.02" y2="413" gradientUnits="userSpaceOnUse">
<stop offset="0.0360681" stop-color="white"/>
<stop offset="1" stop-color="#ABCFFA"/>
</linearGradient>
<linearGradient id="paint87_linear_972_2234" x1="1155.98" y1="290" x2="1165.02" y2="413" gradientUnits="userSpaceOnUse">
<stop offset="0.0360681" stop-color="white"/>
<stop offset="1" stop-color="#ABCFFA"/>
</linearGradient>
<linearGradient id="paint88_linear_972_2234" x1="1155.98" y1="290" x2="1165.02" y2="413" gradientUnits="userSpaceOnUse">
<stop offset="0.0360681" stop-color="white"/>
<stop offset="1" stop-color="#ABCFFA"/>
</linearGradient>
<linearGradient id="paint89_linear_972_2234" x1="1155.98" y1="290" x2="1165.02" y2="413" gradientUnits="userSpaceOnUse">
<stop offset="0.0360681" stop-color="white"/>
<stop offset="1" stop-color="#ABCFFA"/>
</linearGradient>
<linearGradient id="paint90_linear_972_2234" x1="114.888" y1="4.33611e-06" x2="133.112" y2="248" gradientUnits="userSpaceOnUse">
<stop offset="0.0360681" stop-color="white"/>
<stop offset="1" stop-color="#ABCFFA"/>
</linearGradient>
<linearGradient id="paint91_linear_972_2234" x1="114.888" y1="4.33611e-06" x2="133.112" y2="248" gradientUnits="userSpaceOnUse">
<stop offset="0.0360681" stop-color="white"/>
<stop offset="1" stop-color="#ABCFFA"/>
</linearGradient>
<linearGradient id="paint92_linear_972_2234" x1="114.888" y1="4.33611e-06" x2="133.112" y2="248" gradientUnits="userSpaceOnUse">
<stop offset="0.0360681" stop-color="white"/>
<stop offset="1" stop-color="#ABCFFA"/>
</linearGradient>
<linearGradient id="paint93_linear_972_2234" x1="114.888" y1="4.33611e-06" x2="133.112" y2="248" gradientUnits="userSpaceOnUse">
<stop offset="0.0360681" stop-color="white"/>
<stop offset="1" stop-color="#ABCFFA"/>
</linearGradient>
<linearGradient id="paint94_linear_972_2234" x1="114.888" y1="4.33611e-06" x2="133.112" y2="248" gradientUnits="userSpaceOnUse">
<stop offset="0.0360681" stop-color="white"/>
<stop offset="1" stop-color="#ABCFFA"/>
</linearGradient>
<linearGradient id="paint95_linear_972_2234" x1="91.2621" y1="3.44441e-06" x2="105.738" y2="197" gradientUnits="userSpaceOnUse">
<stop offset="0.0360681" stop-color="white"/>
<stop offset="1" stop-color="#ABCFFA"/>
</linearGradient>
<linearGradient id="paint96_linear_972_2234" x1="91.2621" y1="3.44441e-06" x2="105.738" y2="197" gradientUnits="userSpaceOnUse">
<stop offset="0.0360681" stop-color="white"/>
<stop offset="1" stop-color="#ABCFFA"/>
</linearGradient>
<linearGradient id="paint97_linear_972_2234" x1="91.2621" y1="3.44441e-06" x2="105.738" y2="197" gradientUnits="userSpaceOnUse">
<stop offset="0.0360681" stop-color="white"/>
<stop offset="1" stop-color="#ABCFFA"/>
</linearGradient>
<linearGradient id="paint98_linear_972_2234" x1="91.2621" y1="3.44441e-06" x2="105.738" y2="197" gradientUnits="userSpaceOnUse">
<stop offset="0.0360681" stop-color="white"/>
<stop offset="1" stop-color="#ABCFFA"/>
</linearGradient>
<linearGradient id="paint99_linear_972_2234" x1="91.2621" y1="3.44441e-06" x2="105.738" y2="197" gradientUnits="userSpaceOnUse">
<stop offset="0.0360681" stop-color="white"/>
<stop offset="1" stop-color="#ABCFFA"/>
</linearGradient>
<linearGradient id="paint100_linear_972_2234" x1="58.8339" y1="2.22051e-06" x2="68.166" y2="127" gradientUnits="userSpaceOnUse">
<stop offset="0.0360681" stop-color="white"/>
<stop offset="1" stop-color="#ABCFFA"/>
</linearGradient>
<linearGradient id="paint101_linear_972_2234" x1="58.8339" y1="2.22051e-06" x2="68.166" y2="127" gradientUnits="userSpaceOnUse">
<stop offset="0.0360681" stop-color="white"/>
<stop offset="1" stop-color="#ABCFFA"/>
</linearGradient>
<linearGradient id="paint102_linear_972_2234" x1="58.8339" y1="2.22051e-06" x2="68.166" y2="127" gradientUnits="userSpaceOnUse">
<stop offset="0.0360681" stop-color="white"/>
<stop offset="1" stop-color="#ABCFFA"/>
</linearGradient>
<linearGradient id="paint103_linear_972_2234" x1="58.8339" y1="2.22051e-06" x2="68.166" y2="127" gradientUnits="userSpaceOnUse">
<stop offset="0.0360681" stop-color="white"/>
<stop offset="1" stop-color="#ABCFFA"/>
</linearGradient>
<linearGradient id="paint104_linear_972_2234" x1="58.8339" y1="2.22051e-06" x2="68.166" y2="127" gradientUnits="userSpaceOnUse">
<stop offset="0.0360681" stop-color="white"/>
<stop offset="1" stop-color="#ABCFFA"/>
</linearGradient>
<linearGradient id="paint105_linear_972_2234" x1="114.888" y1="4.33611e-06" x2="133.112" y2="248" gradientUnits="userSpaceOnUse">
<stop offset="0.0360681" stop-color="white"/>
<stop offset="1" stop-color="#ABCFFA"/>
</linearGradient>
<linearGradient id="paint106_linear_972_2234" x1="114.888" y1="4.33611e-06" x2="133.112" y2="248" gradientUnits="userSpaceOnUse">
<stop offset="0.0360681" stop-color="white"/>
<stop offset="1" stop-color="#ABCFFA"/>
</linearGradient>
<linearGradient id="paint107_linear_972_2234" x1="114.888" y1="4.33611e-06" x2="133.112" y2="248" gradientUnits="userSpaceOnUse">
<stop offset="0.0360681" stop-color="white"/>
<stop offset="1" stop-color="#ABCFFA"/>
</linearGradient>
<linearGradient id="paint108_linear_972_2234" x1="114.888" y1="4.33611e-06" x2="133.112" y2="248" gradientUnits="userSpaceOnUse">
<stop offset="0.0360681" stop-color="white"/>
<stop offset="1" stop-color="#ABCFFA"/>
</linearGradient>
<linearGradient id="paint109_linear_972_2234" x1="114.888" y1="4.33611e-06" x2="133.112" y2="248" gradientUnits="userSpaceOnUse">
<stop offset="0.0360681" stop-color="white"/>
<stop offset="1" stop-color="#ABCFFA"/>
</linearGradient>
<linearGradient id="paint110_linear_972_2234" x1="84.7765" y1="3.19963e-06" x2="98.2235" y2="183" gradientUnits="userSpaceOnUse">
<stop offset="0.0360681" stop-color="white"/>
<stop offset="1" stop-color="#ABCFFA"/>
</linearGradient>
<linearGradient id="paint111_linear_972_2234" x1="84.7765" y1="3.19963e-06" x2="98.2235" y2="183" gradientUnits="userSpaceOnUse">
<stop offset="0.0360681" stop-color="white"/>
<stop offset="1" stop-color="#ABCFFA"/>
</linearGradient>
<linearGradient id="paint112_linear_972_2234" x1="84.7765" y1="3.19963e-06" x2="98.2235" y2="183" gradientUnits="userSpaceOnUse">
<stop offset="0.0360681" stop-color="white"/>
<stop offset="1" stop-color="#ABCFFA"/>
</linearGradient>
<linearGradient id="paint113_linear_972_2234" x1="84.7765" y1="3.19963e-06" x2="98.2235" y2="183" gradientUnits="userSpaceOnUse">
<stop offset="0.0360681" stop-color="white"/>
<stop offset="1" stop-color="#ABCFFA"/>
</linearGradient>
<linearGradient id="paint114_linear_972_2234" x1="84.7765" y1="3.19963e-06" x2="98.2235" y2="183" gradientUnits="userSpaceOnUse">
<stop offset="0.0360681" stop-color="white"/>
<stop offset="1" stop-color="#ABCFFA"/>
</linearGradient>
<linearGradient id="paint115_linear_972_2234" x1="75.048" y1="2.83246e-06" x2="86.952" y2="162" gradientUnits="userSpaceOnUse">
<stop offset="0.0360681" stop-color="white"/>
<stop offset="1" stop-color="#ABCFFA"/>
</linearGradient>
<linearGradient id="paint116_linear_972_2234" x1="75.048" y1="2.83246e-06" x2="86.952" y2="162" gradientUnits="userSpaceOnUse">
<stop offset="0.0360681" stop-color="white"/>
<stop offset="1" stop-color="#ABCFFA"/>
</linearGradient>
<linearGradient id="paint117_linear_972_2234" x1="75.048" y1="2.83246e-06" x2="86.952" y2="162" gradientUnits="userSpaceOnUse">
<stop offset="0.0360681" stop-color="white"/>
<stop offset="1" stop-color="#ABCFFA"/>
</linearGradient>
<linearGradient id="paint118_linear_972_2234" x1="75.048" y1="2.83246e-06" x2="86.952" y2="162" gradientUnits="userSpaceOnUse">
<stop offset="0.0360681" stop-color="white"/>
<stop offset="1" stop-color="#ABCFFA"/>
</linearGradient>
<linearGradient id="paint119_linear_972_2234" x1="75.048" y1="2.83246e-06" x2="86.952" y2="162" gradientUnits="userSpaceOnUse">
<stop offset="0.0360681" stop-color="white"/>
<stop offset="1" stop-color="#ABCFFA"/>
</linearGradient>
<linearGradient id="paint120_linear_972_2234" x1="78.7541" y1="2.97233e-06" x2="91.2459" y2="170" gradientUnits="userSpaceOnUse">
<stop offset="0.0360681" stop-color="white"/>
<stop offset="1" stop-color="#ABCFFA"/>
</linearGradient>
<linearGradient id="paint121_linear_972_2234" x1="78.7541" y1="2.97233e-06" x2="91.2459" y2="170" gradientUnits="userSpaceOnUse">
<stop offset="0.0360681" stop-color="white"/>
<stop offset="1" stop-color="#ABCFFA"/>
</linearGradient>
<linearGradient id="paint122_linear_972_2234" x1="78.7541" y1="2.97233e-06" x2="91.2459" y2="170" gradientUnits="userSpaceOnUse">
<stop offset="0.0360681" stop-color="white"/>
<stop offset="1" stop-color="#ABCFFA"/>
</linearGradient>
<linearGradient id="paint123_linear_972_2234" x1="78.7541" y1="2.97233e-06" x2="91.2459" y2="170" gradientUnits="userSpaceOnUse">
<stop offset="0.0360681" stop-color="white"/>
<stop offset="1" stop-color="#ABCFFA"/>
</linearGradient>
<linearGradient id="paint124_linear_972_2234" x1="78.7541" y1="2.97233e-06" x2="91.2459" y2="170" gradientUnits="userSpaceOnUse">
<stop offset="0.0360681" stop-color="white"/>
<stop offset="1" stop-color="#ABCFFA"/>
</linearGradient>
<linearGradient id="paint125_linear_972_2234" x1="78.7541" y1="2.97233e-06" x2="91.2459" y2="170" gradientUnits="userSpaceOnUse">
<stop offset="0.0360681" stop-color="white"/>
<stop offset="1" stop-color="#ABCFFA"/>
</linearGradient>
<linearGradient id="paint126_linear_972_2234" x1="78.7541" y1="2.97233e-06" x2="91.2459" y2="170" gradientUnits="userSpaceOnUse">
<stop offset="0.0360681" stop-color="white"/>
<stop offset="1" stop-color="#ABCFFA"/>
</linearGradient>
<linearGradient id="paint127_linear_972_2234" x1="78.7541" y1="2.97233e-06" x2="91.2459" y2="170" gradientUnits="userSpaceOnUse">
<stop offset="0.0360681" stop-color="white"/>
<stop offset="1" stop-color="#ABCFFA"/>
</linearGradient>
<linearGradient id="paint128_linear_972_2234" x1="78.7541" y1="2.97233e-06" x2="91.2459" y2="170" gradientUnits="userSpaceOnUse">
<stop offset="0.0360681" stop-color="white"/>
<stop offset="1" stop-color="#ABCFFA"/>
</linearGradient>
<linearGradient id="paint129_linear_972_2234" x1="78.7541" y1="2.97233e-06" x2="91.2459" y2="170" gradientUnits="userSpaceOnUse">
<stop offset="0.0360681" stop-color="white"/>
<stop offset="1" stop-color="#ABCFFA"/>
</linearGradient>
<linearGradient id="paint130_linear_972_2234" x1="424.048" y1="278" x2="435.952" y2="440" gradientUnits="userSpaceOnUse">
<stop offset="0.0360681" stop-color="white"/>
<stop offset="1" stop-color="#ABCFFA"/>
</linearGradient>
<linearGradient id="paint131_linear_972_2234" x1="424.048" y1="278" x2="435.952" y2="440" gradientUnits="userSpaceOnUse">
<stop offset="0.0360681" stop-color="white"/>
<stop offset="1" stop-color="#ABCFFA"/>
</linearGradient>
<linearGradient id="paint132_linear_972_2234" x1="424.048" y1="278" x2="435.952" y2="440" gradientUnits="userSpaceOnUse">
<stop offset="0.0360681" stop-color="white"/>
<stop offset="1" stop-color="#ABCFFA"/>
</linearGradient>
<linearGradient id="paint133_linear_972_2234" x1="424.048" y1="278" x2="435.952" y2="440" gradientUnits="userSpaceOnUse">
<stop offset="0.0360681" stop-color="white"/>
<stop offset="1" stop-color="#ABCFFA"/>
</linearGradient>
<linearGradient id="paint134_linear_972_2234" x1="424.048" y1="278" x2="435.952" y2="440" gradientUnits="userSpaceOnUse">
<stop offset="0.0360681" stop-color="white"/>
<stop offset="1" stop-color="#ABCFFA"/>
</linearGradient>
<linearGradient id="paint135_linear_972_2234" x1="500.224" y1="309" x2="509.776" y2="439" gradientUnits="userSpaceOnUse">
<stop offset="0.0360681" stop-color="white"/>
<stop offset="1" stop-color="#ABCFFA"/>
</linearGradient>
<linearGradient id="paint136_linear_972_2234" x1="500.224" y1="309" x2="509.776" y2="439" gradientUnits="userSpaceOnUse">
<stop offset="0.0360681" stop-color="white"/>
<stop offset="1" stop-color="#ABCFFA"/>
</linearGradient>
<linearGradient id="paint137_linear_972_2234" x1="500.224" y1="309" x2="509.776" y2="439" gradientUnits="userSpaceOnUse">
<stop offset="0.0360681" stop-color="white"/>
<stop offset="1" stop-color="#ABCFFA"/>
</linearGradient>
<linearGradient id="paint138_linear_972_2234" x1="500.224" y1="309" x2="509.776" y2="439" gradientUnits="userSpaceOnUse">
<stop offset="0.0360681" stop-color="white"/>
<stop offset="1" stop-color="#ABCFFA"/>
</linearGradient>
<linearGradient id="paint139_linear_972_2234" x1="500.224" y1="309" x2="509.776" y2="439" gradientUnits="userSpaceOnUse">
<stop offset="0.0360681" stop-color="white"/>
<stop offset="1" stop-color="#ABCFFA"/>
</linearGradient>
<linearGradient id="paint140_linear_972_2234" x1="72.7317" y1="2.74504e-06" x2="84.2683" y2="157" gradientUnits="userSpaceOnUse">
<stop offset="0.0360681" stop-color="white"/>
<stop offset="1" stop-color="#ABCFFA"/>
</linearGradient>
<linearGradient id="paint141_linear_972_2234" x1="72.7317" y1="2.74504e-06" x2="84.2683" y2="157" gradientUnits="userSpaceOnUse">
<stop offset="0.0360681" stop-color="white"/>
<stop offset="1" stop-color="#ABCFFA"/>
</linearGradient>
<linearGradient id="paint142_linear_972_2234" x1="72.7317" y1="2.74504e-06" x2="84.2683" y2="157" gradientUnits="userSpaceOnUse">
<stop offset="0.0360681" stop-color="white"/>
<stop offset="1" stop-color="#ABCFFA"/>
</linearGradient>
<linearGradient id="paint143_linear_972_2234" x1="72.7317" y1="2.74504e-06" x2="84.2683" y2="157" gradientUnits="userSpaceOnUse">
<stop offset="0.0360681" stop-color="white"/>
<stop offset="1" stop-color="#ABCFFA"/>
</linearGradient>
<linearGradient id="paint144_linear_972_2234" x1="72.7317" y1="2.74504e-06" x2="84.2683" y2="157" gradientUnits="userSpaceOnUse">
<stop offset="0.0360681" stop-color="white"/>
<stop offset="1" stop-color="#ABCFFA"/>
</linearGradient>
<linearGradient id="paint145_linear_972_2234" x1="56.9809" y1="2.15057e-06" x2="66.0191" y2="123" gradientUnits="userSpaceOnUse">
<stop offset="0.0360681" stop-color="white"/>
<stop offset="1" stop-color="#ABCFFA"/>
</linearGradient>
<linearGradient id="paint146_linear_972_2234" x1="56.9809" y1="2.15057e-06" x2="66.0191" y2="123" gradientUnits="userSpaceOnUse">
<stop offset="0.0360681" stop-color="white"/>
<stop offset="1" stop-color="#ABCFFA"/>
</linearGradient>
<linearGradient id="paint147_linear_972_2234" x1="56.9809" y1="2.15057e-06" x2="66.0191" y2="123" gradientUnits="userSpaceOnUse">
<stop offset="0.0360681" stop-color="white"/>
<stop offset="1" stop-color="#ABCFFA"/>
</linearGradient>
<linearGradient id="paint148_linear_972_2234" x1="56.9809" y1="2.15057e-06" x2="66.0191" y2="123" gradientUnits="userSpaceOnUse">
<stop offset="0.0360681" stop-color="white"/>
<stop offset="1" stop-color="#ABCFFA"/>
</linearGradient>
<linearGradient id="paint149_linear_972_2234" x1="56.9809" y1="2.15057e-06" x2="66.0191" y2="123" gradientUnits="userSpaceOnUse">
<stop offset="0.0360681" stop-color="white"/>
<stop offset="1" stop-color="#ABCFFA"/>
</linearGradient>
</defs>
</svg>
