<svg width="1440" height="524" viewBox="0 0 1440 524" fill="none" xmlns="http://www.w3.org/2000/svg">
<circle cx="136.964" cy="136.964" r="136.964" transform="matrix(-1 0 0 1 126.791 0)" fill="#6D94F9"/>
<circle cx="108.798" cy="108.798" r="108.798" transform="matrix(-1 0 0 1 258.232 112.664)" fill="#6D94F9"/>
<circle cx="70.1386" cy="70.1386" r="70.1386" transform="matrix(-1 0 0 1 366.477 180.041)" fill="#6D94F9"/>
<circle cx="136.964" cy="136.964" r="136.964" transform="matrix(-1 0 0 1 126.791 99.4091)" fill="#6D94F9"/>
<circle cx="101.066" cy="101.066" r="101.066" transform="matrix(-1 0 0 1 296.891 194.4)" fill="#6D94F9"/>
<circle cx="77.8705" cy="77.8705" r="77.8705" transform="matrix(-1 0 0 1 466.991 197.714)" fill="#6D94F9"/>
<circle cx="96.6477" cy="96.6477" r="96.6477" transform="matrix(-1 0 0 1 817.295 330)" fill="#6D94F9"/>
<circle cx="89.4682" cy="89.4682" r="89.4682" transform="matrix(-1 0 0 1 507.859 283.868)" fill="#6D94F9"/>
<circle cx="89.4682" cy="89.4682" r="89.4682" transform="matrix(-1 0 0 1 730.977 296.018)" fill="#6D94F9"/>
<circle cx="71.7955" cy="71.7955" r="71.7955" transform="matrix(-1 0 0 1 598.432 335.782)" fill="#6D94F9"/>
<circle cx="89.4682" cy="89.4682" r="89.4682" transform="matrix(-1 0 0 1 895.555 296.018)" fill="#6D94F9"/>
<circle cx="93.8864" cy="93.8864" r="93.8864" transform="matrix(-1 0 0 1 40.6362 259.568)" fill="#6D94F9"/>
<circle cx="93.8864" cy="93.8864" r="93.8864" transform="matrix(-1 0 0 1 400.718 273.927)" fill="#6D94F9"/>
<circle cx="77.5" cy="77.5" r="77.5" transform="matrix(-1 0 0 1 797 330.259)" fill="#6D94F9"/>
<circle cx="86.7068" cy="86.7068" r="86.7068" transform="matrix(-1 0 0 1 148.882 273.927)" fill="#6D94F9"/>
<circle cx="67.9295" cy="67.9295" r="67.9295" transform="matrix(-1 0 0 1 244.977 320.318)" fill="#6D94F9"/>
<circle cx="1450.04" cy="136.964" r="136.964" fill="#6D94F9"/>
<circle cx="1290.43" cy="221.461" r="108.798" fill="#6D94F9"/>
<circle cx="1131.38" cy="252.389" r="77.8705" fill="#6D94F9"/>
<circle cx="1450.04" cy="236.373" r="136.964" fill="#6D94F9"/>
<circle cx="1244.04" cy="295.466" r="101.066" fill="#6D94F9"/>
<circle cx="1039.7" cy="327.498" r="66.825" fill="#6D94F9"/>
<circle cx="1493.11" cy="353.455" r="93.8864" fill="#6D94F9"/>
<circle cx="1133.03" cy="367.814" r="93.8864" fill="#6D94F9"/>
<circle cx="89.4682" cy="89.4682" r="89.4682" transform="matrix(-1 0 0 1 1073.39 307.064)" fill="#6D94F9"/>
<circle cx="71.7955" cy="71.7955" r="71.7955" transform="matrix(-1 0 0 1 972.873 341.305)" fill="#6D94F9"/>
<circle cx="1377.69" cy="360.634" r="86.7068" fill="#6D94F9"/>
<circle cx="1262.82" cy="388.248" r="67.9295" fill="#6D94F9"/>
</svg>
