<svg width="353" height="508" viewBox="0 0 353 508" fill="none" xmlns="http://www.w3.org/2000/svg">
<g filter="url(#filter0_d_972_2073)">
<path d="M112.772 174.579C82.6565 214.852 15 276.288 15 276.288V351.75C15 351.75 73.6735 385.767 143.613 389.481C180.687 391.449 206.279 381.279 206.279 381.279C206.279 381.279 209.57 404.46 212.184 419.665C215.367 438.173 220.387 468.88 220.387 468.88L314.222 467.895C314.222 467.895 294.831 373.55 295.192 319.925C295.554 266.083 315.534 174.579 315.534 174.579L233.182 169.986C233.182 169.986 219.079 211.323 213.497 236.261C208.16 260.106 203.982 296.958 203.982 296.958C203.982 296.958 179.806 307.149 158.705 307.785C139.705 308.359 124.911 305.161 124.911 305.161C124.911 305.161 167.061 266.237 192.171 231.012C229.067 179.25 265.336 74.1826 265.336 74.1826L185.281 23C185.281 23 152.202 121.851 112.772 174.579Z" stroke="white" stroke-width="29"/>
<path d="M234.37 186.585C236.204 179.995 242.343 175.606 249.178 175.872L292.733 177.569C302.167 177.936 308.963 186.821 307.008 196.058C301.148 223.748 290.726 278.073 289.977 317.403C289.203 358.082 298.169 414.68 303.265 443.254C304.93 452.592 297.782 461.292 288.297 461.292H237.382C230.274 461.292 224.159 456.329 222.857 449.342C218.04 423.486 207.56 361.157 209.456 317.403C211.366 273.337 227.412 211.588 234.37 186.585Z" fill="#B736C6"/>
<path d="M22.2178 294.243C22.2178 282.585 35.079 275.136 45.465 280.431C72.266 294.093 116.974 313.916 150.86 313.974C185.068 314.032 230.252 294.073 257.233 280.369C267.617 275.095 280.456 282.544 280.456 294.19V338.997C280.456 344.93 276.996 350.283 271.505 352.529C249.471 361.542 191.452 383.574 150.86 383.536C110.589 383.498 53.0487 361.54 31.1457 352.537C25.6669 350.285 22.2178 344.939 22.2178 339.015V294.243Z" fill="#B736C6"/>
<path d="M181.913 49.98C185.36 40.7136 196.623 36.9762 204.819 42.5047L246.75 70.7874C252.47 74.6455 254.824 81.8706 252.33 88.3034C242.376 113.981 216.021 178.885 189.445 218.3C162.883 257.693 113.375 305.347 93.4953 323.854C88.4664 328.536 80.9161 329.043 75.2198 325.2L33.3099 296.932C25.0918 291.389 24.372 279.49 31.7133 272.829C54.709 251.964 98.9826 209.842 123.217 173.99C147.761 137.681 170.936 79.492 181.913 49.98Z" fill="#B736C6"/>
</g>
<defs>
<filter id="filter0_d_972_2073" x="0.5" y="0.77002" width="351.83" height="506.739" filterUnits="userSpaceOnUse" color-interpolation-filters="sRGB">
<feFlood flood-opacity="0" result="BackgroundImageFix"/>
<feColorMatrix in="SourceAlpha" type="matrix" values="0 0 0 0 0 0 0 0 0 0 0 0 0 0 0 0 0 0 127 0" result="hardAlpha"/>
<feOffset dx="15" dy="20"/>
<feGaussianBlur stdDeviation="2"/>
<feComposite in2="hardAlpha" operator="out"/>
<feColorMatrix type="matrix" values="0 0 0 0 0 0 0 0 0 0 0 0 0 0 0 0 0 0 0.25 0"/>
<feBlend mode="normal" in2="BackgroundImageFix" result="effect1_dropShadow_972_2073"/>
<feBlend mode="normal" in="SourceGraphic" in2="effect1_dropShadow_972_2073" result="shape"/>
</filter>
</defs>
</svg>
