<svg width="270" height="560" viewBox="0 0 270 560" fill="none" xmlns="http://www.w3.org/2000/svg">
<path d="M231.098 137.512H233.663L233.037 135.024L231.098 135.512C233.037 135.024 233.037 135.023 233.037 135.022L233.035 135.016L233.03 134.997L233.011 134.922C232.994 134.856 232.969 134.759 232.937 134.633C232.871 134.379 232.773 134.005 232.642 133.518C232.381 132.544 231.992 131.121 231.473 129.311C230.437 125.692 228.887 120.527 226.827 114.332C222.709 101.949 216.544 85.4176 208.366 68.87C200.196 52.3401 189.968 35.6918 177.685 23.1494C165.402 10.6072 150.889 2 134.204 2C117.518 2 103.005 10.6072 90.7223 23.1494C78.4396 35.6918 68.2108 52.3401 60.0412 68.87C51.8629 85.4176 45.6987 101.949 41.5806 114.332C39.5205 120.527 37.9701 125.692 36.9337 129.311C36.4155 131.121 36.0258 132.544 35.765 133.518C35.6346 134.005 35.5364 134.379 35.4706 134.633C35.4377 134.759 35.4128 134.856 35.3961 134.922L35.377 134.997L35.372 135.016L35.3707 135.022C35.3703 135.023 35.3701 135.024 37.3096 135.512L35.3701 135.024L34.7438 137.512H37.3096H231.098Z" fill="url(#paint0_linear_972_2057)" stroke="white" stroke-width="4"/>
<path d="M64.195 373.02C63.5593 374.916 63.5596 374.916 63.5602 374.917L63.562 374.917L63.5685 374.919L63.5933 374.928L63.6885 374.959C63.7722 374.987 63.8958 375.028 64.0577 375.081C64.3814 375.187 64.8581 375.342 65.4736 375.54C66.7048 375.934 68.4919 376.497 70.7228 377.172C75.1837 378.521 81.424 380.322 88.5445 382.125C102.739 385.719 120.604 389.372 134.852 389.414C149.355 389.457 167.551 385.804 182.01 382.189C189.263 380.375 195.62 378.559 200.164 377.197C202.437 376.515 204.258 375.947 205.512 375.548C206.139 375.349 206.625 375.192 206.954 375.084C207.119 375.03 207.245 374.989 207.33 374.961L207.427 374.929L207.453 374.921L207.459 374.918L207.461 374.918C207.461 374.918 207.462 374.918 207.399 374.73L207.462 374.918L208.489 374.576L208.765 373.529L206.83 373.02C208.765 373.529 208.765 373.528 208.765 373.526L208.767 373.519L208.774 373.493L208.801 373.389C208.825 373.297 208.861 373.16 208.908 372.979C209.002 372.618 209.14 372.082 209.32 371.382C209.679 369.981 210.202 367.922 210.859 365.285C212.173 360.012 214.021 352.428 216.16 343.179C220.439 324.683 225.886 299.518 230.555 272.85C235.224 246.192 239.124 217.985 240.295 193.421C240.881 181.139 240.786 169.726 239.753 159.849C238.722 150.001 236.743 141.536 233.467 135.243C226.901 122.628 212.736 113.524 195.246 107.59C177.692 101.635 156.444 98.7528 135.178 98.8352C113.909 98.9177 92.5081 101.966 74.6412 107.956C56.8385 113.925 42.2246 122.925 34.9935 135.149C31.3531 141.303 29.1606 149.677 28.0194 159.45C26.8747 169.252 26.7708 180.622 27.4183 192.879C28.7135 217.393 33.0261 245.651 38.1862 272.393C43.3484 299.146 49.3694 324.438 54.0986 343.037C56.4635 352.338 58.5062 359.969 59.958 365.276C60.684 367.929 61.2623 370.002 61.6594 371.412C61.8579 372.118 62.0112 372.657 62.1149 373.021C62.1668 373.203 62.2063 373.341 62.2329 373.433L62.2631 373.538L62.2708 373.565L62.2728 373.572C62.2732 373.574 62.2735 373.575 64.195 373.02ZM64.195 373.02L62.2735 373.575L62.5645 374.583L63.5593 374.916L64.195 373.02Z" fill="url(#paint1_linear_972_2057)" stroke="white" stroke-width="4"/>
<path d="M60.9229 356.008L61.1254 355.029L59.5451 354.702L59.9558 356.262L63.2272 368.694L63.3694 369.234L63.9038 369.396L64.1943 368.439C63.9038 369.396 63.9041 369.396 63.9045 369.396L63.9061 369.397L63.9121 369.399L63.9352 369.406L64.0253 369.433C64.1047 369.457 64.2226 369.492 64.3773 369.538C64.6867 369.629 65.1434 369.764 65.7347 369.934C66.9174 370.276 68.6385 370.763 70.796 371.347C75.1108 372.515 81.1733 374.073 88.1672 375.631C102.138 378.743 119.89 381.871 134.858 381.871C149.829 381.871 167.912 378.578 182.208 375.303C189.366 373.663 195.592 372.023 200.029 370.793C202.248 370.178 204.02 369.666 205.238 369.306C205.848 369.127 206.318 368.986 206.637 368.889C206.797 368.841 206.918 368.804 207 368.779L207.093 368.75L207.117 368.743L207.123 368.741L207.125 368.74C207.125 368.74 207.125 368.74 206.829 367.785L207.125 368.74L207.663 368.574L207.8 368.028L211.071 354.942L211.467 353.36L209.877 353.725L210.101 354.699C209.877 353.725 209.877 353.725 209.877 353.725L209.875 353.725L209.869 353.726L209.845 353.732L209.748 353.754C209.661 353.774 209.532 353.803 209.362 353.841C209.023 353.917 208.52 354.03 207.869 354.172C206.568 354.458 204.674 354.866 202.309 355.356C197.579 356.335 190.963 357.642 183.424 358.948C168.328 361.564 149.587 364.168 134.858 364.168C120.118 364.168 101.697 361.888 86.9284 359.6C79.5511 358.456 73.0982 357.313 68.49 356.456C66.186 356.027 64.3435 355.67 63.0777 355.42C62.4447 355.295 61.956 355.197 61.6258 355.131C61.4607 355.097 61.3353 355.072 61.2513 355.054L61.1566 355.035L61.1329 355.03L61.1271 355.029L61.1257 355.029C61.1255 355.029 61.1254 355.029 60.9229 356.008Z" fill="#A839C0" stroke="white" stroke-width="2"/>
<path d="M225.15 276.185L226.985 275.389L224.459 269.56L223.19 275.785L208.796 346.449L208.593 347.447L209.281 348.199L210.756 346.848C209.281 348.199 209.281 348.199 209.282 348.2L209.283 348.201L209.289 348.207L209.31 348.231L209.395 348.322C209.469 348.403 209.578 348.522 209.721 348.677C210.008 348.987 210.429 349.441 210.97 350.021C212.052 351.18 213.612 352.839 215.529 354.844C219.362 358.853 224.625 364.25 230.344 369.794C236.058 375.333 242.25 381.041 247.935 385.664C253.537 390.219 258.901 393.934 262.906 395.208C263.604 395.43 264.416 395.531 265.239 395.286C266.099 395.03 266.728 394.469 267.144 393.81C267.886 392.637 268.03 391.042 267.996 389.54C267.925 386.387 266.985 381.805 265.521 376.411C262.571 365.544 257.296 350.682 251.598 335.748C245.893 320.796 239.74 305.707 235.015 294.359C232.652 288.685 230.645 283.944 229.229 280.621C228.521 278.959 227.96 277.652 227.576 276.76C227.385 276.314 227.237 275.972 227.137 275.741L227.024 275.479L226.995 275.412L226.988 275.395L226.986 275.391C226.985 275.39 226.985 275.389 225.15 276.185Z" fill="url(#paint2_linear_972_2057)" stroke="white" stroke-width="4"/>
<path d="M134.858 281.419L136.772 280.839L134.801 274.339L132.935 280.87L134.858 281.419ZM134.858 281.419C136.772 280.839 136.772 280.839 136.772 280.839L136.773 280.841L136.775 280.847L136.781 280.868L136.806 280.95C136.827 281.022 136.859 281.129 136.901 281.268C136.983 281.548 137.104 281.96 137.259 282.495C137.568 283.565 138.01 285.128 138.547 287.105C139.621 291.058 141.074 296.67 142.59 303.314C145.618 316.588 148.916 334.046 149.94 350.65L149.944 350.712V350.774C149.944 364.706 147.79 377.491 145.037 386.834C143.664 391.496 142.121 395.371 140.581 398.123C139.815 399.492 139.005 400.664 138.159 401.521C137.368 402.323 136.244 403.154 134.858 403.154C134.035 403.154 133.339 402.828 132.818 402.474C132.29 402.115 131.816 401.644 131.393 401.141C130.548 400.134 129.709 398.76 128.896 397.169C127.26 393.97 125.564 389.565 124.032 384.602C120.971 374.686 118.464 362.209 118.464 352.082C118.464 341.666 122.127 323.769 125.715 308.682C127.52 301.093 129.324 294.143 130.677 289.091C131.354 286.564 131.918 284.511 132.313 283.088C132.51 282.377 132.666 281.823 132.772 281.447C132.825 281.259 132.865 281.115 132.893 281.018L132.924 280.908L132.932 280.88L132.934 280.872L132.935 280.87C132.935 280.87 132.935 280.87 134.858 281.419Z" fill="url(#paint3_linear_972_2057)" stroke="white" stroke-width="4"/>
<path d="M44.8498 276.185L43.0148 275.389L45.5415 269.56L46.8095 275.785L61.2039 346.449L61.4073 347.447L60.7189 348.199L59.2441 346.848C60.7189 348.199 60.7186 348.199 60.7182 348.2L60.7168 348.201L60.7112 348.207L60.6896 348.231L60.6055 348.322C60.5315 348.403 60.4219 348.522 60.2786 348.677C59.992 348.987 59.5707 349.441 59.0297 350.021C57.948 351.18 56.3877 352.839 54.4709 354.844C50.6382 358.853 45.3746 364.25 39.656 369.794C33.9421 375.333 27.7504 381.041 22.0654 385.664C16.4626 390.219 11.0987 393.934 7.09428 395.208C6.39628 395.43 5.58361 395.531 4.7609 395.286C3.90076 395.03 3.27197 394.469 2.8559 393.81C2.11426 392.637 1.9702 391.042 2.00397 389.54C2.07487 386.387 3.01517 381.805 4.47911 376.411C7.42856 365.544 12.7042 350.682 18.4023 335.748C24.1071 320.796 30.2601 305.707 34.9852 294.359C37.3481 288.685 39.3549 283.944 40.7711 280.621C41.4793 278.959 42.0398 277.652 42.4235 276.76C42.6154 276.314 42.763 275.972 42.8628 275.741L42.976 275.479L43.0049 275.412L43.0122 275.395L43.0141 275.391C43.0145 275.39 43.0148 275.389 44.8498 276.185Z" fill="url(#paint4_linear_972_2057)" stroke="white" stroke-width="4"/>
<ellipse cx="165.801" cy="40.9559" rx="10.4686" ry="22.9001" transform="rotate(-41 165.801 40.9559)" fill="white"/>
<circle cx="189.164" cy="74.0092" r="8.50577" fill="white"/>
<circle cx="134.858" cy="187.201" r="64.8118" fill="url(#paint5_linear_972_2057)" stroke="white" stroke-width="4"/>
<circle cx="135.512" cy="186.547" r="49.7632" fill="url(#paint6_linear_972_2057)" stroke="white" stroke-width="4"/>
<ellipse cx="160.592" cy="157.741" rx="13.0822" ry="5.79183" transform="rotate(40 160.592 157.741)" fill="white"/>
<circle cx="173.461" cy="172.152" r="3.27145" fill="white"/>
<path d="M138.5 560C153.489 560 176 417 176 417C176 417 152.728 423.194 138.084 423.194C123.439 423.194 101 417 101 417C101 417 123.511 560 138.5 560Z" fill="white"/>
<path d="M179.522 527.792C195.183 527.791 214.001 401 214.001 401C214.001 401 192.582 412.585 175.865 417.09C159.149 421.595 143.999 424.17 143.999 424.17C143.999 424.17 163.862 527.792 179.522 527.792Z" fill="white"/>
<path d="M97.2776 527.792C81.6171 527.791 62.7992 401 62.7992 401C62.7992 401 84.2176 412.585 100.934 417.09C117.651 421.595 132.801 424.17 132.801 424.17C132.801 424.17 112.938 527.792 97.2776 527.792Z" fill="white"/>
<path d="M138.62 545C151.211 545 170.12 426.896 170.12 426.896C170.12 426.896 150.572 432.012 138.27 432.012C125.969 432.012 107.12 426.896 107.12 426.896C107.12 426.896 126.029 545 138.62 545Z" fill="#C63636"/>
<path d="M177.68 516.804C190.271 516.804 205.4 412 205.4 412C205.4 412 188.18 421.576 174.74 425.3C161.3 429.024 149.12 431.152 149.12 431.152C149.12 431.152 165.089 516.804 177.68 516.804Z" fill="#C63636"/>
<path d="M98.7203 516.804C86.1295 516.804 71.0003 412 71.0003 412C71.0003 412 88.2203 421.576 101.66 425.3C115.1 429.024 127.28 431.152 127.28 431.152C127.28 431.152 111.311 516.804 98.7203 516.804Z" fill="#C63636"/>
<path d="M139.263 492.625C147.132 492.625 158.95 434.35 158.95 434.35C158.95 434.35 146.733 436.874 139.044 436.874C131.356 436.874 119.575 434.35 119.575 434.35C119.575 434.35 131.393 492.625 139.263 492.625Z" fill="#F6EF3B"/>
<path d="M163.675 478.712C171.544 478.712 181 427 181 427C181 427 170.238 431.725 161.838 433.562C153.438 435.4 145.825 436.45 145.825 436.45C145.825 436.45 155.806 478.712 163.675 478.712Z" fill="#F6EF3B"/>
<path d="M114.325 478.712C106.456 478.712 96.9998 427 96.9998 427C96.9998 427 107.762 431.725 116.162 433.562C124.562 435.4 132.175 436.45 132.175 436.45C132.175 436.45 122.194 478.712 114.325 478.712Z" fill="#F6EF3B"/>
<defs>
<linearGradient id="paint0_linear_972_2057" x1="134.204" y1="4" x2="134.204" y2="135.512" gradientUnits="userSpaceOnUse">
<stop stop-color="#A839C0"/>
<stop offset="1" stop-color="#6F66D0"/>
</linearGradient>
<linearGradient id="paint1_linear_972_2057" x1="133.838" y1="100.833" x2="133.838" y2="387.414" gradientUnits="userSpaceOnUse">
<stop stop-color="#E28858"/>
<stop offset="1" stop-color="#D56C3A"/>
</linearGradient>
<linearGradient id="paint2_linear_972_2057" x1="238.378" y1="276.185" x2="238.378" y2="393.429" gradientUnits="userSpaceOnUse">
<stop stop-color="#A839C0"/>
<stop offset="1" stop-color="#6F66D0"/>
</linearGradient>
<linearGradient id="paint3_linear_972_2057" x1="134.204" y1="281.419" x2="134.204" y2="401.154" gradientUnits="userSpaceOnUse">
<stop stop-color="#A839C0"/>
<stop offset="1" stop-color="#6F66D0"/>
</linearGradient>
<linearGradient id="paint4_linear_972_2057" x1="31.6219" y1="276.185" x2="31.6219" y2="393.429" gradientUnits="userSpaceOnUse">
<stop stop-color="#A839C0"/>
<stop offset="1" stop-color="#6F66D0"/>
</linearGradient>
<linearGradient id="paint5_linear_972_2057" x1="134.858" y1="124.389" x2="134.858" y2="250.013" gradientUnits="userSpaceOnUse">
<stop stop-color="#A839C0"/>
<stop offset="1" stop-color="#6F66D0"/>
</linearGradient>
<linearGradient id="paint6_linear_972_2057" x1="135.512" y1="138.784" x2="79.2432" y2="196.361" gradientUnits="userSpaceOnUse">
<stop stop-color="#ABCFFA"/>
<stop offset="1" stop-color="#4163E6"/>
</linearGradient>
</defs>
</svg>
