<svg width="65" height="66" viewBox="0 0 65 66" fill="none" xmlns="http://www.w3.org/2000/svg">
<g filter="url(#filter0_d_870_2003)">
<path d="M47.3147 4.16886C47.8894 1.25639 44.3373 -0.632285 42.2442 1.47279L31.6617 12.1154C30.7295 13.0529 29.2934 13.2696 28.126 12.6489L15.3257 5.84289C12.8055 4.50286 10.0146 7.10738 11.1776 9.71405L17.4233 23.7131C17.9284 24.8453 17.6851 26.1716 16.8109 27.0507L5.78648 38.1378C3.72238 40.2136 5.54917 43.714 8.43247 43.2079L22.5314 40.7331C23.8862 40.4953 25.2293 41.2094 25.7897 42.4656L31.622 55.538C32.8147 58.2114 36.7382 57.7685 37.305 54.8965L40.3318 39.557C40.5718 38.3407 41.5353 37.3973 42.7564 37.1829L57.8546 34.5327C60.666 34.0392 61.2646 30.269 58.7444 28.929L45.9441 22.123C44.7767 21.5023 44.1533 20.1905 44.4092 18.8934L47.3147 4.16886Z" fill="#F7EF3B"/>
<path d="M45.8431 3.87848C46.1305 2.42225 44.3544 1.4779 43.3078 2.53044L32.7254 13.173C31.327 14.5794 29.1729 14.9044 27.4218 13.9734L14.6215 7.16731C13.3614 6.4973 11.9659 7.79956 12.5474 9.10289L18.7931 23.1019C19.5508 24.8002 19.1858 26.7896 17.8746 28.1083L6.85014 39.1955C5.81809 40.2334 6.73148 41.9836 8.17314 41.7305L22.272 39.2557C24.3044 38.8989 26.3189 39.9701 27.1596 41.8544L32.9919 54.9269C33.5882 56.2635 35.55 56.0421 35.8333 54.6061L38.8602 39.2666C39.2202 37.4421 40.6654 36.027 42.4971 35.7055L57.5953 33.0553C59.001 32.8085 59.3003 30.9235 58.0402 30.2534L45.2399 23.4474C43.4888 22.5163 42.5537 20.5487 42.9376 18.603L45.8431 3.87848Z" stroke="white" stroke-width="3"/>
</g>
<defs>
<filter id="filter0_d_870_2003" x="0.902832" y="0.576172" width="63.4346" height="64.7402" filterUnits="userSpaceOnUse" color-interpolation-filters="sRGB">
<feFlood flood-opacity="0" result="BackgroundImageFix"/>
<feColorMatrix in="SourceAlpha" type="matrix" values="0 0 0 0 0 0 0 0 0 0 0 0 0 0 0 0 0 0 127 0" result="hardAlpha"/>
<feOffset dy="4"/>
<feGaussianBlur stdDeviation="2"/>
<feComposite in2="hardAlpha" operator="out"/>
<feColorMatrix type="matrix" values="0 0 0 0 0 0 0 0 0 0 0 0 0 0 0 0 0 0 0.25 0"/>
<feBlend mode="normal" in2="BackgroundImageFix" result="effect1_dropShadow_870_2003"/>
<feBlend mode="normal" in="SourceGraphic" in2="effect1_dropShadow_870_2003" result="shape"/>
</filter>
</defs>
</svg>
